  0
SECTION
  2
HEADER
  9
$ACADVER
  1
AC1015
  9
$ACADMAINTVER
 70
     6
  9
$DWGCODEPAGE
  3
ANSI_1252
  9
$INSBASE
 10
0.0
 20
0.0
 30
0.0
  9
$EXTMIN
 10
-143.0000000005
 20
112.3310261238
 30
0.0
  9
$EXTMAX
 10
143.0000000005
 20
248.3310261243
 30
0.0
  9
$LIMMIN
 10
0.0
 20
0.0
  9
$LIMMAX
 10
420.0
 20
297.0
  9
$ORTHOMODE
 70
     0
  9
$REGENMODE
 70
     1
  9
$FILLMODE
 70
     1
  9
$QTEXTMODE
 70
     0
  9
$MIRRTEXT
 70
     1
  9
$LTSCALE
 40
1.0
  9
$ATTMODE
 70
     1
  9
$TEXTSIZE
 40
3.5
  9
$TRACEWID
 40
1.0
  9
$TEXTSTYLE
  7
Standard
  9
$CLAYER
  8
0
  9
$CELTYPE
  6
ByLayer
  9
$CECOLOR
 62
   256
  9
$CELTSCALE
 40
1.0
  9
$DISPSILH
 70
     0
  9
$DIMSCALE
 40
1.0
  9
$DIMASZ
 40
6.0
  9
$DIMEXO
 40
0.0
  9
$DIMDLI
 40
3.75
  9
$DIMRND
 40
0.0
  9
$DIMDLE
 40
0.0
  9
$DIMEXE
 40
1.0
  9
$DIMTP
 40
0.0
  9
$DIMTM
 40
0.0
  9
$DIMTXT
 40
3.5
  9
$DIMCEN
 40
2.5
  9
$DIMTSZ
 40
0.0
  9
$DIMTOL
 70
     0
  9
$DIMLIM
 70
     0
  9
$DIMTIH
 70
     1
  9
$DIMTOH
 70
     1
  9
$DIMSE1
 70
     0
  9
$DIMSE2
 70
     0
  9
$DIMTAD
 70
     1
  9
$DIMZIN
 70
     0
  9
$DIMBLK
  1

  9
$DIMASO
 70
     1
  9
$DIMSHO
 70
     1
  9
$DIMPOST
  1

  9
$DIMAPOST
  1

  9
$DIMALT
 70
     0
  9
$DIMALTD
 70
     3
  9
$DIMALTF
 40
0.0393700787
  9
$DIMLFAC
 40
1.0
  9
$DIMTOFL
 70
     1
  9
$DIMTVP
 40
0.0
  9
$DIMTIX
 70
     0
  9
$DIMSOXD
 70
     0
  9
$DIMSAH
 70
     0
  9
$DIMBLK1
  1

  9
$DIMBLK2
  1

  9
$DIMSTYLE
  2
ISO-25
  9
$DIMCLRD
 70
     0
  9
$DIMCLRE
 70
     0
  9
$DIMCLRT
 70
     0
  9
$DIMTFAC
 40
1.0
  9
$DIMGAP
 40
1.524
  9
$DIMJUST
 70
     0
  9
$DIMSD1
 70
     0
  9
$DIMSD2
 70
     0
  9
$DIMTOLJ
 70
     0
  9
$DIMTZIN
 70
     0
  9
$DIMALTZ
 70
     0
  9
$DIMALTTZ
 70
     0
  9
$DIMUPT
 70
     0
  9
$DIMDEC
 70
     2
  9
$DIMTDEC
 70
     2
  9
$DIMALTU
 70
     2
  9
$DIMALTTD
 70
     3
  9
$DIMTXSTY
  7
Standard
  9
$DIMAUNIT
 70
     0
  9
$DIMADEC
 70
     2
  9
$DIMALTRND
 40
0.0
  9
$DIMAZIN
 70
     0
  9
$DIMDSEP
 70
    44
  9
$DIMATFIT
 70
     3
  9
$DIMFRAC
 70
     0
  9
$DIMLDRBLK
  1

  9
$DIMLUNIT
 70
     2
  9
$DIMLWD
 70
    -2
  9
$DIMLWE
 70
    -2
  9
$DIMTMOVE
 70
     0
  9
$LUNITS
 70
     2
  9
$LUPREC
 70
     2
  9
$SKETCHINC
 40
1.0
  9
$FILLETRAD
 40
0.0
  9
$AUNITS
 70
     0
  9
$AUPREC
 70
     2
  9
$MENU
  1
.
  9
$ELEVATION
 40
0.0
  9
$PELEVATION
 40
0.0
  9
$THICKNESS
 40
0.0
  9
$LIMCHECK
 70
     0
  9
$CHAMFERA
 40
0.0
  9
$CHAMFERB
 40
0.0
  9
$CHAMFERC
 40
0.0
  9
$CHAMFERD
 40
0.0
  9
$SKPOLY
 70
     0
  9
$TDCREATE
 40
2460523.583615278
  9
$TDUCREATE
 40
2460523.083615278
  9
$TDUPDATE
 40
2460523.583646158
  9
$TDUUPDATE
 40
2460523.083646158
  9
$TDINDWG
 40
0.0000000116
  9
$TDUSRTIMER
 40
0.0000000116
  9
$USRTIMER
 70
     1
  9
$ANGBASE
 50
0.0
  9
$ANGDIR
 70
     0
  9
$PDMODE
 70
     0
  9
$PDSIZE
 40
-1.0
  9
$PLINEWID
 40
0.0
  9
$SPLFRAME
 70
     0
  9
$SPLINETYPE
 70
     6
  9
$SPLINESEGS
 70
     8
  9
$HANDSEED
  5
221
  9
$SURFTAB1
 70
     6
  9
$SURFTAB2
 70
     6
  9
$SURFTYPE
 70
     6
  9
$SURFU
 70
     6
  9
$SURFV
 70
     6
  9
$UCSBASE
  2

  9
$UCSNAME
  2

  9
$UCSORG
 10
0.0
 20
0.0
 30
0.0
  9
$UCSXDIR
 10
1.0
 20
0.0
 30
0.0
  9
$UCSYDIR
 10
0.0
 20
1.0
 30
0.0
  9
$UCSORTHOREF
  2

  9
$UCSORTHOVIEW
 70
     0
  9
$UCSORGTOP
 10
0.0
 20
0.0
 30
0.0
  9
$UCSORGBOTTOM
 10
0.0
 20
0.0
 30
0.0
  9
$UCSORGLEFT
 10
0.0
 20
0.0
 30
0.0
  9
$UCSORGRIGHT
 10
0.0
 20
0.0
 30
0.0
  9
$UCSORGFRONT
 10
0.0
 20
0.0
 30
0.0
  9
$UCSORGBACK
 10
0.0
 20
0.0
 30
0.0
  9
$PUCSBASE
  2

  9
$PUCSNAME
  2

  9
$PUCSORG
 10
0.0
 20
0.0
 30
0.0
  9
$PUCSXDIR
 10
1.0
 20
0.0
 30
0.0
  9
$PUCSYDIR
 10
0.0
 20
1.0
 30
0.0
  9
$PUCSORTHOREF
  2

  9
$PUCSORTHOVIEW
 70
     0
  9
$PUCSORGTOP
 10
0.0
 20
0.0
 30
0.0
  9
$PUCSORGBOTTOM
 10
0.0
 20
0.0
 30
0.0
  9
$PUCSORGLEFT
 10
0.0
 20
0.0
 30
0.0
  9
$PUCSORGRIGHT
 10
0.0
 20
0.0
 30
0.0
  9
$PUCSORGFRONT
 10
0.0
 20
0.0
 30
0.0
  9
$PUCSORGBACK
 10
0.0
 20
0.0
 30
0.0
  9
$USERI1
 70
     0
  9
$USERI2
 70
     0
  9
$USERI3
 70
     0
  9
$USERI4
 70
     0
  9
$USERI5
 70
     0
  9
$USERR1
 40
0.0
  9
$USERR2
 40
0.0
  9
$USERR3
 40
0.0
  9
$USERR4
 40
0.0
  9
$USERR5
 40
0.0
  9
$WORLDVIEW
 70
     1
  9
$SHADEDGE
 70
     3
  9
$SHADEDIF
 70
    70
  9
$TILEMODE
 70
     1
  9
$MAXACTVP
 70
    64
  9
$PINSBASE
 10
0.0
 20
0.0
 30
0.0
  9
$PLIMCHECK
 70
     0
  9
$PEXTMIN
 10
1.0000000000E+20
 20
1.0000000000E+20
 30
1.0000000000E+20
  9
$PEXTMAX
 10
-1.0000000000E+20
 20
-1.0000000000E+20
 30
-1.0000000000E+20
  9
$PLIMMIN
 10
0.0
 20
0.0
  9
$PLIMMAX
 10
420.0
 20
297.0
  9
$UNITMODE
 70
     0
  9
$VISRETAIN
 70
     1
  9
$PLINEGEN
 70
     0
  9
$PSLTSCALE
 70
     1
  9
$TREEDEPTH
 70
  3020
  9
$CMLSTYLE
  2
Standard
  9
$CMLJUST
 70
     0
  9
$CMLSCALE
 40
20.0
  9
$PROXYGRAPHICS
 70
     1
  9
$MEASUREMENT
 70
     1
  9
$CELWEIGHT
370
    -1
  9
$ENDCAPS
280
     0
  9
$JOINSTYLE
280
     0
  9
$LWDISPLAY
290
     1
  9
$INSUNITS
 70
     4
  9
$HYPERLINKBASE
  1

  9
$STYLESHEET
  1

  9
$XEDIT
290
     1
  9
$CEPSNTYPE
380
     0
  9
$PSTYLEMODE
290
     1
  9
$FINGERPRINTGUID
  2
{f68abea2-397c-4f48-ae7f-27b0cff58a20}
  9
$VERSIONGUID
  2
{FAEB1C32-E019-11D5-929B-00C0DF256EC4}
  9
$EXTNAMES
290
     1
  9
$PSVPSCALE
 40
0.0
  9
$OLESTARTUP
290
     0
  0
ENDSEC
  0
SECTION
  2
CLASSES
  0
CLASS
  1
ACDBDICTIONARYWDFLT
  2
AcDbDictionaryWithDefault
  3
ObjectDBX Classes
 90
        0
280
     0
281
     0
  0
CLASS
  1
VISUALSTYLE
  2
AcDbVisualStyle
  3
ObjectDBX Classes
 90
     4095
280
     0
281
     0
  0
CLASS
  1
MATERIAL
  2
AcDbMaterial
  3
ObjectDBX Classes
 90
     1153
280
     0
281
     0
  0
CLASS
  1
SCALE
  2
AcDbScale
  3
ObjectDBX Classes
 90
     1153
280
     0
281
     0
  0
CLASS
  1
TABLESTYLE
  2
AcDbTableStyle
  3
ObjectDBX Classes
 90
     4095
280
     0
281
     0
  0
CLASS
  1
MLEADERSTYLE
  2
AcDbMLeaderStyle
  3
ACDB_MLEADERSTYLE_CLASS
 90
     4095
280
     0
281
     0
  0
CLASS
  1
SUN
  2
AcDbSun
  3
SCENEOE
 90
     1153
280
     0
281
     0
  0
CLASS
  1
ACDBPLACEHOLDER
  2
AcDbPlaceHolder
  3
ObjectDBX Classes
 90
        0
280
     0
281
     0
  0
CLASS
  1
LAYOUT
  2
AcDbLayout
  3
ObjectDBX Classes
 90
        0
280
     0
281
     0
  0
ENDSEC
  0
SECTION
  2
TABLES
  0
TABLE
  2
VPORT
  5
8
330
0
100
AcDbSymbolTable
 70
     1
  0
VPORT
  5
29
330
8
100
AcDbSymbolTableRecord
100
AcDbViewportTableRecord
  2
*Active
 70
     0
 10
0.0
 20
0.0
 11
1.0
 21
1.0
 12
0.0
 22
180.331026124
 13
0.0
 23
0.0
 14
10.0
 24
10.0
 15
10.0
 25
10.0
 16
0.0
 26
0.0
 36
1.0
 17
0.0
 27
0.0
 37
0.0
 40
138.7200000006
 41
2.1029411765
 42
50.0
 43
0.0
 44
0.0
 50
0.0
 51
0.0
 71
     0
 72
   100
 73
     1
 74
     3
 75
     0
 76
     0
 77
     0
 78
     0
281
     0
 65
     1
110
0.0
120
0.0
130
0.0
111
1.0
121
0.0
131
0.0
112
0.0
122
1.0
132
0.0
 79
     0
146
0.0
  0
ENDTAB
  0
TABLE
  2
LTYPE
  5
5
330
0
100
AcDbSymbolTable
 70
     6
  0
LTYPE
  5
14
330
5
100
AcDbSymbolTableRecord
100
AcDbLinetypeTableRecord
  2
ByBlock
 70
     0
  3

 72
    65
 73
     0
 40
0.0
  0
LTYPE
  5
15
330
5
100
AcDbSymbolTableRecord
100
AcDbLinetypeTableRecord
  2
ByLayer
 70
     0
  3

 72
    65
 73
     0
 40
0.0
  0
LTYPE
  5
16
330
5
100
AcDbSymbolTableRecord
100
AcDbLinetypeTableRecord
  2
Continuous
 70
     0
  3
Solid line
 72
    65
 73
     0
 40
0.0
  0
LTYPE
  5
5E
330
5
100
AcDbSymbolTableRecord
100
AcDbLinetypeTableRecord
  2
HIDDEN
 70
     0
  3
Hidden __ __ __ __ __ __ __ __ __ __ __ __ __ __
 72
    65
 73
     2
 40
1.905
 49
1.27
 74
     0
 49
-0.635
 74
     0
  0
LTYPE
  5
5F
330
5
100
AcDbSymbolTableRecord
100
AcDbLinetypeTableRecord
  2
PHANTOM
 70
     0
  3
Phantom ______  __  __  ______  __  __  ______
 72
    65
 73
     6
 40
12.7
 49
6.35
 74
     0
 49
-1.27
 74
     0
 49
1.27
 74
     0
 49
-1.27
 74
     0
 49
1.27
 74
     0
 49
-1.27
 74
     0
  0
LTYPE
  5
60
330
5
100
AcDbSymbolTableRecord
100
AcDbLinetypeTableRecord
  2
CENTER
 70
     0
  3
Center ____ _ ____ _ ____ _ ____ _ ____ _ ____
 72
    65
 73
     4
 40
10.16
 49
6.35
 74
     0
 49
-1.27
 74
     0
 49
1.27
 74
     0
 49
-1.27
 74
     0
  0
LTYPE
  5
61
330
5
100
AcDbSymbolTableRecord
100
AcDbLinetypeTableRecord
  2
CENTERX2
 70
     0
  3
Center (2x) ________  __  ________  __  _____
 72
    65
 73
     4
 40
20.32
 49
12.7
 74
     0
 49
-2.54
 74
     0
 49
2.54
 74
     0
 49
-2.54
 74
     0
  0
LTYPE
  5
62
330
5
100
AcDbSymbolTableRecord
100
AcDbLinetypeTableRecord
  2
DOT2
 70
     0
  3
Dot (.5x) ........................................
 72
    65
 73
     2
 40
0.635
 49
0.0
 74
     0
 49
-0.635
 74
     0
  0
ENDTAB
  0
TABLE
  2
LAYER
  5
2
330
0
100
AcDbSymbolTable
 70
     1
  0
LAYER
  5
10
330
2
100
AcDbSymbolTableRecord
100
AcDbLayerTableRecord
  2
0
 70
     0
 62
     7
  6
Continuous
370
    -3
390
F
  0
ENDTAB
  0
TABLE
  2
STYLE
  5
3
330
0
100
AcDbSymbolTable
 70
     2
  0
STYLE
  5
11
330
3
100
AcDbSymbolTableRecord
100
AcDbTextStyleTableRecord
  2
Standard
 70
     0
 40
0.0
 41
1.0
 50
0.0
 71
     0
 42
3.5
  3
txt
  4

  0
STYLE
  5
21D
330
3
100
AcDbSymbolTableRecord
100
AcDbTextStyleTableRecord
  2
SLDTEXTSTYLE0
 70
     0
 40
0.0
 41
0.7
 50
0.0
 71
     0
 42
3.5
  3
TXT
  4

  0
ENDTAB
  0
TABLE
  2
VIEW
  5
6
330
0
100
AcDbSymbolTable
 70
     0
  0
ENDTAB
  0
TABLE
  2
UCS
  5
7
330
0
100
AcDbSymbolTable
 70
     0
  0
ENDTAB
  0
TABLE
  2
APPID
  5
9
330
0
100
AcDbSymbolTable
 70
     1
  0
APPID
  5
12
330
9
100
AcDbSymbolTableRecord
100
AcDbRegAppTableRecord
  2
ACAD
 70
     0
  0
ENDTAB
  0
TABLE
  2
DIMSTYLE
  5
A
330
0
100
AcDbSymbolTable
 70
     1
100
AcDbDimStyleTable
  0
DIMSTYLE
105
27
330
A
100
AcDbSymbolTableRecord
100
AcDbDimStyleTableRecord
  2
ISO-25
 70
     0
 41
2.5
 42
0.625
 43
3.75
 44
1.25
 73
     0
 74
     0
 77
     1
 78
     8
140
2.5
141
2.5
143
0.0393700787
147
0.625
171
     3
172
     1
178
     0
271
     2
272
     2
274
     3
278
    44
283
     0
284
     8
340
11
  0
ENDTAB
  0
TABLE
  2
BLOCK_RECORD
  5
1
330
0
100
AcDbSymbolTable
 70
     1
  0
BLOCK_RECORD
  5
1F
330
1
100
AcDbSymbolTableRecord
100
AcDbBlockTableRecord
  2
*Model_Space
340
22
  0
BLOCK_RECORD
  5
1B
330
1
100
AcDbSymbolTableRecord
100
AcDbBlockTableRecord
  2
*Paper_Space
340
1E
  0
BLOCK_RECORD
  5
23
330
1
100
AcDbSymbolTableRecord
100
AcDbBlockTableRecord
  2
*Paper_Space0
340
26
  0
ENDTAB
  0
ENDSEC
  0
SECTION
  2
BLOCKS
  0
BLOCK
  5
20
330
1F
100
AcDbEntity
  8
0
100
AcDbBlockBegin
  2
*Model_Space
 70
     0
 10
0.0
 20
0.0
 30
0.0
  3
*Model_Space
  1

  0
ENDBLK
  5
21
330
1F
100
AcDbEntity
  8
0
100
AcDbBlockEnd
  0
BLOCK
  5
1C
330
1B
100
AcDbEntity
 67
     1
  8
0
100
AcDbBlockBegin
  2
*Paper_Space
 70
     0
 10
0.0
 20
0.0
 30
0.0
  3
*Paper_Space
  1

  0
ENDBLK
  5
1D
330
1B
100
AcDbEntity
 67
     1
  8
0
100
AcDbBlockEnd
  0
BLOCK
  5
24
330
23
100
AcDbEntity
  8
0
100
AcDbBlockBegin
  2
*Paper_Space0
 70
     0
 10
0.0
 20
0.0
 30
0.0
  3
*Paper_Space0
  1

  0
ENDBLK
  5
25
330
23
100
AcDbEntity
  8
0
100
AcDbBlockEnd
  0
ENDSEC
  0
SECTION
  2
ENTITIES
  0
SPLINE
  5
97
330
1F
100
AcDbEntity
  8
0
  6
Continuous
 62
     7
370
    25
100
AcDbSpline
210
0.0
220
0.0
230
1.0
 70
    24
 71
     3
 72
    11
 73
     7
 74
     0
 42
0.00000001
 43
0.00000001
 40
0.0
 40
0.0
 40
0.0
 40
0.0
 40
0.3000114789251302
 40
0.553082737111851
 40
0.7579538821360258
 40
0.9999999999999999
 40
0.9999999999999999
 40
0.9999999999999999
 40
0.9999999999999999
 10
90.29999999999836
 20
163.3876504505167
 30
0.0
 10
90.41979399024994
 20
163.4568135430357
 30
0.0
 10
90.64063883343827
 20
163.5843183726996
 30
0.0
 10
90.97479246796685
 20
163.7772420635455
 30
0.0
 10
91.27661030971764
 20
163.9514966757264
 30
0.0
 10
91.45395293124957
 20
164.0538854860067
 30
0.0
 10
91.54999999999835
 20
164.1093382870037
 30
0.0
  0
SPLINE
  5
9A
330
1F
100
AcDbEntity
  8
0
  6
Continuous
 62
     7
370
    25
100
AcDbSpline
210
0.0
220
0.0
230
1.0
 70
    24
 71
     3
 72
    11
 73
     7
 74
     0
 42
0.00000001
 43
0.00000001
 40
0.0
 40
0.0
 40
0.0
 40
0.0
 40
0.300011478925138
 40
0.5530827371118419
 40
0.7579538821360169
 40
0.9999999999999999
 40
0.9999999999999999
 40
0.9999999999999999
 40
0.9999999999999999
 10
89.04999999999835
 20
164.1093382870037
 30
0.0
 10
89.16979399024996
 20
164.0401751944846
 30
0.0
 10
89.39063883343825
 20
163.9126703648207
 30
0.0
 10
89.72479246796686
 20
163.719746673975
 30
0.0
 10
90.02661030971761
 20
163.5454920617939
 30
0.0
 10
90.20395293124959
 20
163.4431032515137
 30
0.0
 10
90.29999999999836
 20
163.3876504505167
 30
0.0
  0
SPLINE
  5
9C
330
1F
100
AcDbEntity
  8
0
  6
Continuous
 62
     7
370
    25
100
AcDbSpline
210
0.0
220
0.0
230
1.0
 70
    24
 71
     3
 72
    11
 73
     7
 74
     0
 42
0.00000001
 43
0.00000001
 40
0.0
 40
0.0
 40
0.0
 40
0.0
 40
0.3000114789251316
 40
0.5530827371118463
 40
0.7579538821360134
 40
1.0
 40
1.0
 40
1.0
 40
1.0
 10
89.04999999999833
 20
165.5527139599778
 30
0.0
 10
89.04999999999833
 20
165.4143877749397
 30
0.0
 10
89.04999999999832
 20
165.1593781156119
 30
0.0
 10
89.04999999999835
 20
164.7735307339203
 30
0.0
 10
89.04999999999832
 20
164.4250215095581
 30
0.0
 10
89.04999999999835
 20
164.2202438889977
 30
0.0
 10
89.04999999999835
 20
164.1093382870037
 30
0.0
  0
SPLINE
  5
9E
330
1F
100
AcDbEntity
  8
0
  6
Continuous
 62
     7
370
    25
100
AcDbSpline
210
0.0
220
0.0
230
1.0
 70
    24
 71
     3
 72
    11
 73
     7
 74
     0
 42
0.00000001
 43
0.00000001
 40
0.0
 40
0.0
 40
0.0
 40
0.0
 40
0.3000114789251302
 40
0.553082737111851
 40
0.7579538821360258
 40
0.9999999999999999
 40
0.9999999999999999
 40
0.9999999999999999
 40
0.9999999999999999
 10
90.29999999999833
 20
166.2744017964648
 30
0.0
 10
90.18020600974673
 20
166.2052387039457
 30
0.0
 10
89.95936116655844
 20
166.0777338742818
 30
0.0
 10
89.62520753202988
 20
165.8848101834361
 30
0.0
 10
89.32338969027906
 20
165.710555571255
 30
0.0
 10
89.14604706874712
 20
165.6081667609748
 30
0.0
 10
89.04999999999833
 20
165.5527139599778
 30
0.0
  0
SPLINE
  5
A0
330
1F
100
AcDbEntity
  8
0
  6
Continuous
 62
     7
370
    25
100
AcDbSpline
210
0.0
220
0.0
230
1.0
 70
    24
 71
     3
 72
    11
 73
     7
 74
     0
 42
0.00000001
 43
0.00000001
 40
0.0
 40
0.0
 40
0.0
 40
0.0
 40
0.300011478925138
 40
0.5530827371118419
 40
0.7579538821360169
 40
0.9999999999999999
 40
0.9999999999999999
 40
0.9999999999999999
 40
0.9999999999999999
 10
91.54999999999833
 20
165.5527139599778
 30
0.0
 10
91.43020600974673
 20
165.6218770524969
 30
0.0
 10
91.20936116655845
 20
165.7493818821607
 30
0.0
 10
90.87520753202985
 20
165.9423055730065
 30
0.0
 10
90.57338969027906
 20
166.1165601851875
 30
0.0
 10
90.39604706874711
 20
166.2189489954678
 30
0.0
 10
90.29999999999833
 20
166.2744017964648
 30
0.0
  0
SPLINE
  5
A2
330
1F
100
AcDbEntity
  8
0
  6
Continuous
 62
     7
370
    25
100
AcDbSpline
210
0.0
220
0.0
230
1.0
 70
    24
 71
     3
 72
    11
 73
     7
 74
     0
 42
0.00000001
 43
0.00000001
 40
0.0
 40
0.0
 40
0.0
 40
0.0
 40
0.3000114789251492
 40
0.5530827371118459
 40
0.7579538821360132
 40
1.0
 40
1.0
 40
1.0
 40
1.0
 10
91.54999999999835
 20
164.1093382870037
 30
0.0
 10
91.54999999999835
 20
164.2476644720418
 30
0.0
 10
91.54999999999833
 20
164.5026741313696
 30
0.0
 10
91.54999999999838
 20
164.8885215130613
 30
0.0
 10
91.54999999999832
 20
165.2370307374233
 30
0.0
 10
91.54999999999833
 20
165.4418083579838
 30
0.0
 10
91.54999999999833
 20
165.5527139599778
 30
0.0
  0
CIRCLE
  5
A3
330
1F
100
AcDbEntity
  8
0
  6
Continuous
 62
     7
370
    25
100
AcDbCircle
 10
90.3
 20
164.8310261235
 30
0.0
 40
2.585000000000008
  0
CIRCLE
  5
A5
330
1F
100
AcDbEntity
  8
0
  6
Continuous
 62
     7
370
    25
100
AcDbCircle
 10
90.3
 20
164.8310261235
 30
0.0
 40
2.750000000000014
  0
SPLINE
  5
A7
330
1F
100
AcDbEntity
  8
0
  6
Continuous
 62
     7
370
    25
100
AcDbSpline
210
0.0
220
0.0
230
1.0
 70
    24
 71
     3
 72
    11
 73
     7
 74
     0
 42
0.00000001
 43
0.00000001
 40
0.0
 40
0.0
 40
0.0
 40
0.0
 40
0.3000114789251342
 40
0.5530827371118421
 40
0.757953882136017
 40
1.0
 40
1.0
 40
1.0
 40
1.0
 10
-58.05000000000214
 20
196.5527139599762
 30
0.0
 10
-58.16979399025375
 20
196.6218770524953
 30
0.0
 10
-58.39063883344203
 20
196.7493818821592
 30
0.0
 10
-58.72479246797063
 20
196.9423055730049
 30
0.0
 10
-59.02661030972141
 20
197.116560185186
 30
0.0
 10
-59.20395293125338
 20
197.2189489954663
 30
0.0
 10
-59.30000000000214
 20
197.2744017964633
 30
0.0
  0
SPLINE
  5
A9
330
1F
100
AcDbEntity
  8
0
  6
Continuous
 62
     7
370
    25
100
AcDbSpline
210
0.0
220
0.0
230
1.0
 70
    24
 71
     3
 72
    11
 73
     7
 74
     0
 42
0.00000001
 43
0.00000001
 40
0.0
 40
0.0
 40
0.0
 40
0.0
 40
0.3000114789251316
 40
0.5530827371118463
 40
0.7579538821360134
 40
1.0
 40
1.0
 40
1.0
 40
1.0
 10
-58.05000000000212
 20
195.1093382870021
 30
0.0
 10
-58.05000000000212
 20
195.2476644720402
 30
0.0
 10
-58.05000000000212
 20
195.5026741313681
 30
0.0
 10
-58.05000000000213
 20
195.8885215130596
 30
0.0
 10
-58.0500000000021
 20
196.2370307374216
 30
0.0
 10
-58.05000000000214
 20
196.4418083579822
 30
0.0
 10
-58.05000000000214
 20
196.5527139599762
 30
0.0
  0
SPLINE
  5
AB
330
1F
100
AcDbEntity
  8
0
  6
Continuous
 62
     7
370
    25
100
AcDbSpline
210
0.0
220
0.0
230
1.0
 70
    24
 71
     3
 72
    11
 73
     7
 74
     0
 42
0.00000001
 43
0.00000001
 40
0.0
 40
0.0
 40
0.0
 40
0.0
 40
0.300011478925134
 40
0.5530827371118509
 40
0.7579538821360257
 40
0.9999999999999999
 40
0.9999999999999999
 40
0.9999999999999999
 40
0.9999999999999999
 10
-59.30000000000211
 20
194.3876504505151
 30
0.0
 10
-59.18020600975051
 20
194.4568135430341
 30
0.0
 10
-58.95936116656222
 20
194.584318372698
 30
0.0
 10
-58.62520753203364
 20
194.7772420635439
 30
0.0
 10
-58.32338969028284
 20
194.9514966757249
 30
0.0
 10
-58.14604706875088
 20
195.0538854860052
 30
0.0
 10
-58.05000000000212
 20
195.1093382870021
 30
0.0
  0
SPLINE
  5
AD
330
1F
100
AcDbEntity
  8
0
  6
Continuous
 62
     7
370
    25
100
AcDbSpline
210
0.0
220
0.0
230
1.0
 70
    24
 71
     3
 72
    11
 73
     7
 74
     0
 42
0.00000001
 43
0.00000001
 40
0.0
 40
0.0
 40
0.0
 40
0.0
 40
0.3000114789251343
 40
0.5530827371118422
 40
0.7579538821360132
 40
1.0
 40
1.0
 40
1.0
 40
1.0
 10
-60.55000000000212
 20
195.1093382870021
 30
0.0
 10
-60.43020600975051
 20
195.0401751944831
 30
0.0
 10
-60.20936116656222
 20
194.9126703648192
 30
0.0
 10
-59.87520753203364
 20
194.7197466739734
 30
0.0
 10
-59.57338969028284
 20
194.5454920617924
 30
0.0
 10
-59.39604706875088
 20
194.4431032515121
 30
0.0
 10
-59.30000000000211
 20
194.3876504505151
 30
0.0
  0
SPLINE
  5
AF
330
1F
100
AcDbEntity
  8
0
  6
Continuous
 62
     7
370
    25
100
AcDbSpline
210
0.0
220
0.0
230
1.0
 70
    24
 71
     3
 72
    11
 73
     7
 74
     0
 42
0.00000001
 43
0.00000001
 40
0.0
 40
0.0
 40
0.0
 40
0.0
 40
0.3000114789251492
 40
0.5530827371118459
 40
0.7579538821360132
 40
1.0
 40
1.0
 40
1.0
 40
1.0
 10
-60.55000000000214
 20
196.5527139599762
 30
0.0
 10
-60.55000000000212
 20
196.4143877749381
 30
0.0
 10
-60.55000000000211
 20
196.1593781156102
 30
0.0
 10
-60.55000000000216
 20
195.7735307339188
 30
0.0
 10
-60.55000000000211
 20
195.4250215095566
 30
0.0
 10
-60.55000000000212
 20
195.2202438889961
 30
0.0
 10
-60.55000000000212
 20
195.1093382870021
 30
0.0
  0
SPLINE
  5
B1
330
1F
100
AcDbEntity
  8
0
  6
Continuous
 62
     7
370
    25
100
AcDbSpline
210
0.0
220
0.0
230
1.0
 70
    24
 71
     3
 72
    11
 73
     7
 74
     0
 42
0.00000001
 43
0.00000001
 40
0.0
 40
0.0
 40
0.0
 40
0.0
 40
0.300011478925134
 40
0.5530827371118509
 40
0.7579538821360257
 40
0.9999999999999999
 40
0.9999999999999999
 40
0.9999999999999999
 40
0.9999999999999999
 10
-59.30000000000214
 20
197.2744017964633
 30
0.0
 10
-59.41979399025374
 20
197.2052387039442
 30
0.0
 10
-59.64063883344203
 20
197.0777338742803
 30
0.0
 10
-59.97479246797064
 20
196.8848101834345
 30
0.0
 10
-60.27661030972141
 20
196.7105555712534
 30
0.0
 10
-60.45395293125336
 20
196.6081667609731
 30
0.0
 10
-60.55000000000214
 20
196.5527139599762
 30
0.0
  0
CIRCLE
  5
B2
330
1F
100
AcDbEntity
  8
0
  6
Continuous
 62
     7
370
    25
100
AcDbCircle
 10
-59.3
 20
195.8310261235
 30
0.0
 40
2.585000000000015
  0
CIRCLE
  5
B4
330
1F
100
AcDbEntity
  8
0
  6
Continuous
 62
     7
370
    25
100
AcDbCircle
 10
-59.3
 20
195.8310261235
 30
0.0
 40
2.749999999999979
  0
SPLINE
  5
B5
330
1F
100
AcDbEntity
  8
0
  6
Continuous
 62
     7
370
    25
100
AcDbSpline
210
0.0
220
0.0
230
1.0
 70
    24
 71
     3
 72
    11
 73
     7
 74
     0
 42
0.00000001
 43
0.00000001
 40
0.0
 40
0.0
 40
0.0
 40
0.0
 40
0.300011478925138
 40
0.5530827371118419
 40
0.7579538821360169
 40
0.9999999999999999
 40
0.9999999999999999
 40
0.9999999999999999
 40
0.9999999999999999
 10
-89.0500000000018
 20
165.5527139599759
 30
0.0
 10
-89.16979399025342
 20
165.621877052495
 30
0.0
 10
-89.3906388334417
 20
165.7493818821589
 30
0.0
 10
-89.72479246797032
 20
165.9423055730046
 30
0.0
 10
-90.02661030972105
 20
166.1165601851857
 30
0.0
 10
-90.20395293125304
 20
166.218948995466
 30
0.0
 10
-90.30000000000182
 20
166.2744017964629
 30
0.0
  0
SPLINE
  5
B7
330
1F
100
AcDbEntity
  8
0
  6
Continuous
 62
     7
370
    25
100
AcDbSpline
210
0.0
220
0.0
230
1.0
 70
    24
 71
     3
 72
    11
 73
     7
 74
     0
 42
0.00000001
 43
0.00000001
 40
0.0
 40
0.0
 40
0.0
 40
0.0
 40
0.3000114789251316
 40
0.5530827371118463
 40
0.7579538821360134
 40
1.0
 40
1.0
 40
1.0
 40
1.0
 10
-89.05000000000179
 20
164.1093382870018
 30
0.0
 10
-89.05000000000179
 20
164.24766447204
 30
0.0
 10
-89.05000000000177
 20
164.5026741313678
 30
0.0
 10
-89.05000000000179
 20
164.8885215130593
 30
0.0
 10
-89.05000000000177
 20
165.2370307374213
 30
0.0
 10
-89.0500000000018
 20
165.441808357982
 30
0.0
 10
-89.0500000000018
 20
165.5527139599759
 30
0.0
  0
SPLINE
  5
B9
330
1F
100
AcDbEntity
  8
0
  6
Continuous
 62
     7
370
    25
100
AcDbSpline
210
0.0
220
0.0
230
1.0
 70
    24
 71
     3
 72
    11
 73
     7
 74
     0
 42
0.00000001
 43
0.00000001
 40
0.0
 40
0.0
 40
0.0
 40
0.0
 40
0.3000114789251302
 40
0.553082737111851
 40
0.7579538821360258
 40
0.9999999999999999
 40
0.9999999999999999
 40
0.9999999999999999
 40
0.9999999999999999
 10
-90.30000000000179
 20
163.3876504505148
 30
0.0
 10
-90.18020600975017
 20
163.4568135430339
 30
0.0
 10
-89.95936116656188
 20
163.5843183726977
 30
0.0
 10
-89.62520753203333
 20
163.7772420635436
 30
0.0
 10
-89.32338969028251
 20
163.9514966757246
 30
0.0
 10
-89.14604706875058
 20
164.0538854860049
 30
0.0
 10
-89.05000000000179
 20
164.1093382870018
 30
0.0
  0
SPLINE
  5
BB
330
1F
100
AcDbEntity
  8
0
  6
Continuous
 62
     7
370
    25
100
AcDbSpline
210
0.0
220
0.0
230
1.0
 70
    24
 71
     3
 72
    11
 73
     7
 74
     0
 42
0.00000001
 43
0.00000001
 40
0.0
 40
0.0
 40
0.0
 40
0.0
 40
0.3000114789251492
 40
0.5530827371118459
 40
0.7579538821360132
 40
1.0
 40
1.0
 40
1.0
 40
1.0
 10
-91.55000000000182
 20
165.5527139599759
 30
0.0
 10
-91.55000000000182
 20
165.4143877749378
 30
0.0
 10
-91.5500000000018
 20
165.1593781156099
 30
0.0
 10
-91.55000000000183
 20
164.7735307339184
 30
0.0
 10
-91.55000000000177
 20
164.4250215095563
 30
0.0
 10
-91.5500000000018
 20
164.2202438889958
 30
0.0
 10
-91.5500000000018
 20
164.1093382870018
 30
0.0
  0
SPLINE
  5
BE
330
1F
100
AcDbEntity
  8
0
  6
Continuous
 62
     7
370
    25
100
AcDbSpline
210
0.0
220
0.0
230
1.0
 70
    24
 71
     3
 72
    11
 73
     7
 74
     0
 42
0.00000001
 43
0.00000001
 40
0.0
 40
0.0
 40
0.0
 40
0.0
 40
0.300011478925138
 40
0.5530827371118419
 40
0.7579538821360169
 40
0.9999999999999999
 40
0.9999999999999999
 40
0.9999999999999999
 40
0.9999999999999999
 10
-91.5500000000018
 20
164.1093382870018
 30
0.0
 10
-91.4302060097502
 20
164.0401751944827
 30
0.0
 10
-91.2093611665619
 20
163.9126703648189
 30
0.0
 10
-90.8752075320333
 20
163.7197466739731
 30
0.0
 10
-90.5733896902825
 20
163.5454920617921
 30
0.0
 10
-90.39604706875055
 20
163.4431032515118
 30
0.0
 10
-90.30000000000179
 20
163.3876504505148
 30
0.0
  0
SPLINE
  5
C0
330
1F
100
AcDbEntity
  8
0
  6
Continuous
 62
     7
370
    25
100
AcDbSpline
210
0.0
220
0.0
230
1.0
 70
    24
 71
     3
 72
    11
 73
     7
 74
     0
 42
0.00000001
 43
0.00000001
 40
0.0
 40
0.0
 40
0.0
 40
0.0
 40
0.3000114789251302
 40
0.553082737111851
 40
0.7579538821360258
 40
0.9999999999999999
 40
0.9999999999999999
 40
0.9999999999999999
 40
0.9999999999999999
 10
-90.30000000000182
 20
166.2744017964629
 30
0.0
 10
-90.4197939902534
 20
166.2052387039439
 30
0.0
 10
-90.64063883344171
 20
166.07773387428
 30
0.0
 10
-90.9747924679703
 20
165.8848101834342
 30
0.0
 10
-91.2766103097211
 20
165.7105555712531
 30
0.0
 10
-91.45395293125303
 20
165.6081667609729
 30
0.0
 10
-91.55000000000182
 20
165.5527139599759
 30
0.0
  0
CIRCLE
  5
C1
330
1F
100
AcDbEntity
  8
0
  6
Continuous
 62
     7
370
    25
100
AcDbCircle
 10
-90.3
 20
164.8310261235
 30
0.0
 40
2.585000000000022
  0
CIRCLE
  5
C3
330
1F
100
AcDbEntity
  8
0
  6
Continuous
 62
     7
370
    25
100
AcDbCircle
 10
-90.3
 20
164.8310261235
 30
0.0
 40
2.750000000000057
  0
SPLINE
  5
C4
330
1F
100
AcDbEntity
  8
0
  6
Continuous
 62
     7
370
    25
100
AcDbSpline
210
0.0
220
0.0
230
1.0
 70
    24
 71
     3
 72
    11
 73
     7
 74
     0
 42
0.00000001
 43
0.00000001
 40
0.0
 40
0.0
 40
0.0
 40
0.0
 40
0.3000114789251342
 40
0.5530827371118421
 40
0.757953882136017
 40
1.0
 40
1.0
 40
1.0
 40
1.0
 10
58.04999999999836
 20
164.1093382870034
 30
0.0
 10
58.16979399024997
 20
164.0401751944843
 30
0.0
 10
58.39063883343826
 20
163.9126703648204
 30
0.0
 10
58.72479246796686
 20
163.7197466739746
 30
0.0
 10
59.02661030971763
 20
163.5454920617936
 30
0.0
 10
59.2039529312496
 20
163.4431032515133
 30
0.0
 10
59.29999999999836
 20
163.3876504505163
 30
0.0
  0
SPLINE
  5
C6
330
1F
100
AcDbEntity
  8
0
  6
Continuous
 62
     7
370
    25
100
AcDbSpline
210
0.0
220
0.0
230
1.0
 70
    24
 71
     3
 72
    11
 73
     7
 74
     0
 42
0.00000001
 43
0.00000001
 40
0.0
 40
0.0
 40
0.0
 40
0.0
 40
0.3000114789251316
 40
0.5530827371118463
 40
0.7579538821360134
 40
1.0
 40
1.0
 40
1.0
 40
1.0
 10
58.04999999999834
 20
165.5527139599774
 30
0.0
 10
58.04999999999834
 20
165.4143877749393
 30
0.0
 10
58.04999999999835
 20
165.1593781156115
 30
0.0
 10
58.04999999999835
 20
164.77353073392
 30
0.0
 10
58.04999999999833
 20
164.4250215095578
 30
0.0
 10
58.04999999999836
 20
164.2202438889973
 30
0.0
 10
58.04999999999836
 20
164.1093382870034
 30
0.0
  0
SPLINE
  5
C8
330
1F
100
AcDbEntity
  8
0
  6
Continuous
 62
     7
370
    25
100
AcDbSpline
210
0.0
220
0.0
230
1.0
 70
    24
 71
     3
 72
    11
 73
     7
 74
     0
 42
0.00000001
 43
0.00000001
 40
0.0
 40
0.0
 40
0.0
 40
0.0
 40
0.300011478925134
 40
0.5530827371118509
 40
0.7579538821360257
 40
0.9999999999999999
 40
0.9999999999999999
 40
0.9999999999999999
 40
0.9999999999999999
 10
59.29999999999833
 20
166.2744017964645
 30
0.0
 10
59.18020600974673
 20
166.2052387039454
 30
0.0
 10
58.95936116655844
 20
166.0777338742815
 30
0.0
 10
58.62520753202987
 20
165.8848101834357
 30
0.0
 10
58.32338969027906
 20
165.7105555712547
 30
0.0
 10
58.1460470687471
 20
165.6081667609744
 30
0.0
 10
58.04999999999834
 20
165.5527139599774
 30
0.0
  0
SPLINE
  5
CB
330
1F
100
AcDbEntity
  8
0
  6
Continuous
 62
     7
370
    25
100
AcDbSpline
210
0.0
220
0.0
230
1.0
 70
    24
 71
     3
 72
    11
 73
     7
 74
     0
 42
0.00000001
 43
0.00000001
 40
0.0
 40
0.0
 40
0.0
 40
0.0
 40
0.3000114789251343
 40
0.5530827371118422
 40
0.7579538821360132
 40
1.0
 40
1.0
 40
1.0
 40
1.0
 10
60.54999999999834
 20
165.5527139599775
 30
0.0
 10
60.43020600974674
 20
165.6218770524966
 30
0.0
 10
60.20936116655845
 20
165.7493818821605
 30
0.0
 10
59.87520753202986
 20
165.9423055730063
 30
0.0
 10
59.57338969027906
 20
166.1165601851872
 30
0.0
 10
59.3960470687471
 20
166.2189489954675
 30
0.0
 10
59.29999999999833
 20
166.2744017964645
 30
0.0
  0
SPLINE
  5
CD
330
1F
100
AcDbEntity
  8
0
  6
Continuous
 62
     7
370
    25
100
AcDbSpline
210
0.0
220
0.0
230
1.0
 70
    24
 71
     3
 72
    11
 73
     7
 74
     0
 42
0.00000001
 43
0.00000001
 40
0.0
 40
0.0
 40
0.0
 40
0.0
 40
0.3000114789251492
 40
0.5530827371118459
 40
0.7579538821360132
 40
1.0
 40
1.0
 40
1.0
 40
1.0
 10
60.54999999999836
 20
164.1093382870034
 30
0.0
 10
60.54999999999835
 20
164.2476644720415
 30
0.0
 10
60.54999999999834
 20
164.5026741313693
 30
0.0
 10
60.54999999999838
 20
164.8885215130609
 30
0.0
 10
60.54999999999833
 20
165.2370307374229
 30
0.0
 10
60.54999999999834
 20
165.4418083579835
 30
0.0
 10
60.54999999999834
 20
165.5527139599775
 30
0.0
  0
SPLINE
  5
CF
330
1F
100
AcDbEntity
  8
0
  6
Continuous
 62
     7
370
    25
100
AcDbSpline
210
0.0
220
0.0
230
1.0
 70
    24
 71
     3
 72
    11
 73
     7
 74
     0
 42
0.00000001
 43
0.00000001
 40
0.0
 40
0.0
 40
0.0
 40
0.0
 40
0.300011478925134
 40
0.5530827371118509
 40
0.7579538821360257
 40
0.9999999999999999
 40
0.9999999999999999
 40
0.9999999999999999
 40
0.9999999999999999
 10
59.29999999999836
 20
163.3876504505163
 30
0.0
 10
59.41979399024996
 20
163.4568135430353
 30
0.0
 10
59.64063883343825
 20
163.5843183726993
 30
0.0
 10
59.97479246796687
 20
163.7772420635452
 30
0.0
 10
60.27661030971763
 20
163.9514966757261
 30
0.0
 10
60.45395293124958
 20
164.0538854860064
 30
0.0
 10
60.54999999999836
 20
164.1093382870034
 30
0.0
  0
CIRCLE
  5
D0
330
1F
100
AcDbEntity
  8
0
  6
Continuous
 62
     7
370
    25
100
AcDbCircle
 10
59.3
 20
164.8310261235
 30
0.0
 40
2.585000000000015
  0
CIRCLE
  5
D2
330
1F
100
AcDbEntity
  8
0
  6
Continuous
 62
     7
370
    25
100
AcDbCircle
 10
59.3
 20
164.8310261235
 30
0.0
 40
2.749999999999993
  0
SPLINE
  5
D3
330
1F
100
AcDbEntity
  8
0
  6
Continuous
 62
     7
370
    25
100
AcDbSpline
210
0.0
220
0.0
230
1.0
 70
    24
 71
     3
 72
    11
 73
     7
 74
     0
 42
0.00000001
 43
0.00000001
 40
0.0
 40
0.0
 40
0.0
 40
0.0
 40
0.300011478925138
 40
0.5530827371118419
 40
0.7579538821360169
 40
0.9999999999999999
 40
0.9999999999999999
 40
0.9999999999999999
 40
0.9999999999999999
 10
-89.05000000000213
 20
196.5527139599759
 30
0.0
 10
-89.16979399025374
 20
196.621877052495
 30
0.0
 10
-89.39063883344201
 20
196.7493818821589
 30
0.0
 10
-89.72479246797064
 20
196.9423055730046
 30
0.0
 10
-90.02661030972138
 20
197.1165601851856
 30
0.0
 10
-90.20395293125337
 20
197.2189489954659
 30
0.0
 10
-90.30000000000214
 20
197.2744017964629
 30
0.0
  0
SPLINE
  5
D5
330
1F
100
AcDbEntity
  8
0
  6
Continuous
 62
     7
370
    25
100
AcDbSpline
210
0.0
220
0.0
230
1.0
 70
    24
 71
     3
 72
    11
 73
     7
 74
     0
 42
0.00000001
 43
0.00000001
 40
0.0
 40
0.0
 40
0.0
 40
0.0
 40
0.300011478925138
 40
0.5530827371118419
 40
0.7579538821360169
 40
0.9999999999999999
 40
0.9999999999999999
 40
0.9999999999999999
 40
0.9999999999999999
 10
-91.55000000000211
 20
195.1093382870018
 30
0.0
 10
-91.4302060097505
 20
195.0401751944827
 30
0.0
 10
-91.20936116656223
 20
194.9126703648189
 30
0.0
 10
-90.87520753203363
 20
194.7197466739731
 30
0.0
 10
-90.57338969028284
 20
194.545492061792
 30
0.0
 10
-90.39604706875089
 20
194.4431032515118
 30
0.0
 10
-90.30000000000211
 20
194.3876504505148
 30
0.0
  0
SPLINE
  5
D8
330
1F
100
AcDbEntity
  8
0
  6
Continuous
 62
     7
370
    25
100
AcDbSpline
210
0.0
220
0.0
230
1.0
 70
    24
 71
     3
 72
    11
 73
     7
 74
     0
 42
0.00000001
 43
0.00000001
 40
0.0
 40
0.0
 40
0.0
 40
0.0
 40
0.3000114789251316
 40
0.5530827371118463
 40
0.7579538821360134
 40
1.0
 40
1.0
 40
1.0
 40
1.0
 10
-89.05000000000211
 20
195.1093382870018
 30
0.0
 10
-89.05000000000211
 20
195.2476644720399
 30
0.0
 10
-89.05000000000211
 20
195.5026741313677
 30
0.0
 10
-89.05000000000213
 20
195.8885215130593
 30
0.0
 10
-89.0500000000021
 20
196.2370307374213
 30
0.0
 10
-89.05000000000213
 20
196.4418083579819
 30
0.0
 10
-89.05000000000213
 20
196.5527139599759
 30
0.0
  0
SPLINE
  5
DA
330
1F
100
AcDbEntity
  8
0
  6
Continuous
 62
     7
370
    25
100
AcDbSpline
210
0.0
220
0.0
230
1.0
 70
    24
 71
     3
 72
    11
 73
     7
 74
     0
 42
0.00000001
 43
0.00000001
 40
0.0
 40
0.0
 40
0.0
 40
0.0
 40
0.3000114789251302
 40
0.553082737111851
 40
0.7579538821360258
 40
0.9999999999999999
 40
0.9999999999999999
 40
0.9999999999999999
 40
0.9999999999999999
 10
-90.30000000000211
 20
194.3876504505148
 30
0.0
 10
-90.1802060097505
 20
194.4568135430338
 30
0.0
 10
-89.9593611665622
 20
194.5843183726977
 30
0.0
 10
-89.62520753203366
 20
194.7772420635436
 30
0.0
 10
-89.32338969028284
 20
194.9514966757246
 30
0.0
 10
-89.1460470687509
 20
195.0538854860048
 30
0.0
 10
-89.05000000000211
 20
195.1093382870018
 30
0.0
  0
SPLINE
  5
DB
330
1F
100
AcDbEntity
  8
0
  6
Continuous
 62
     7
370
    25
100
AcDbSpline
210
0.0
220
0.0
230
1.0
 70
    24
 71
     3
 72
    11
 73
     7
 74
     0
 42
0.00000001
 43
0.00000001
 40
0.0
 40
0.0
 40
0.0
 40
0.0
 40
0.3000114789251492
 40
0.5530827371118459
 40
0.7579538821360132
 40
1.0
 40
1.0
 40
1.0
 40
1.0
 10
-91.55000000000213
 20
196.5527139599759
 30
0.0
 10
-91.55000000000213
 20
196.4143877749377
 30
0.0
 10
-91.55000000000211
 20
196.1593781156099
 30
0.0
 10
-91.55000000000216
 20
195.7735307339185
 30
0.0
 10
-91.55000000000209
 20
195.4250215095562
 30
0.0
 10
-91.55000000000211
 20
195.2202438889957
 30
0.0
 10
-91.55000000000211
 20
195.1093382870018
 30
0.0
  0
SPLINE
  5
DE
330
1F
100
AcDbEntity
  8
0
  6
Continuous
 62
     7
370
    25
100
AcDbSpline
210
0.0
220
0.0
230
1.0
 70
    24
 71
     3
 72
    11
 73
     7
 74
     0
 42
0.00000001
 43
0.00000001
 40
0.0
 40
0.0
 40
0.0
 40
0.0
 40
0.3000114789251302
 40
0.553082737111851
 40
0.7579538821360258
 40
0.9999999999999999
 40
0.9999999999999999
 40
0.9999999999999999
 40
0.9999999999999999
 10
-90.30000000000214
 20
197.2744017964629
 30
0.0
 10
-90.41979399025372
 20
197.2052387039438
 30
0.0
 10
-90.64063883344205
 20
197.07773387428
 30
0.0
 10
-90.97479246797063
 20
196.8848101834342
 30
0.0
 10
-91.2766103097214
 20
196.7105555712531
 30
0.0
 10
-91.45395293125334
 20
196.6081667609728
 30
0.0
 10
-91.55000000000213
 20
196.5527139599759
 30
0.0
  0
CIRCLE
  5
DF
330
1F
100
AcDbEntity
  8
0
  6
Continuous
 62
     7
370
    25
100
AcDbCircle
 10
-90.3
 20
195.8310261235
 30
0.0
 40
2.585000000000008
  0
CIRCLE
  5
E1
330
1F
100
AcDbEntity
  8
0
  6
Continuous
 62
     7
370
    25
100
AcDbCircle
 10
-90.3
 20
195.8310261235
 30
0.0
 40
2.749999999999943
  0
SPLINE
  5
E3
330
1F
100
AcDbEntity
  8
0
  6
Continuous
 62
     7
370
    25
100
AcDbSpline
210
0.0
220
0.0
230
1.0
 70
    24
 71
     3
 72
    11
 73
     7
 74
     0
 42
0.00000001
 43
0.00000001
 40
0.0
 40
0.0
 40
0.0
 40
0.0
 40
0.300011478925138
 40
0.5530827371118419
 40
0.7579538821360169
 40
0.9999999999999999
 40
0.9999999999999999
 40
0.9999999999999999
 40
0.9999999999999999
 10
89.04999999999804
 20
195.1093382870037
 30
0.0
 10
89.16979399024964
 20
195.0401751944846
 30
0.0
 10
89.39063883343792
 20
194.9126703648207
 30
0.0
 10
89.72479246796654
 20
194.719746673975
 30
0.0
 10
90.02661030971727
 20
194.5454920617939
 30
0.0
 10
90.20395293124926
 20
194.4431032515137
 30
0.0
 10
90.29999999999804
 20
194.3876504505167
 30
0.0
  0
SPLINE
  5
E5
330
1F
100
AcDbEntity
  8
0
  6
Continuous
 62
     7
370
    25
100
AcDbSpline
210
0.0
220
0.0
230
1.0
 70
    24
 71
     3
 72
    11
 73
     7
 74
     0
 42
0.00000001
 43
0.00000001
 40
0.0
 40
0.0
 40
0.0
 40
0.0
 40
0.300011478925138
 40
0.5530827371118419
 40
0.7579538821360169
 40
0.9999999999999999
 40
0.9999999999999999
 40
0.9999999999999999
 40
0.9999999999999999
 10
91.54999999999802
 20
196.5527139599778
 30
0.0
 10
91.43020600974641
 20
196.6218770524969
 30
0.0
 10
91.20936116655812
 20
196.7493818821608
 30
0.0
 10
90.87520753202952
 20
196.9423055730065
 30
0.0
 10
90.57338969027873
 20
197.1165601851875
 30
0.0
 10
90.39604706874678
 20
197.2189489954678
 30
0.0
 10
90.29999999999801
 20
197.2744017964648
 30
0.0
  0
SPLINE
  5
E7
330
1F
100
AcDbEntity
  8
0
  6
Continuous
 62
     7
370
    25
100
AcDbSpline
210
0.0
220
0.0
230
1.0
 70
    24
 71
     3
 72
    11
 73
     7
 74
     0
 42
0.00000001
 43
0.00000001
 40
0.0
 40
0.0
 40
0.0
 40
0.0
 40
0.3000114789251492
 40
0.5530827371118459
 40
0.7579538821360132
 40
1.0
 40
1.0
 40
1.0
 40
1.0
 10
91.54999999999804
 20
195.1093382870037
 30
0.0
 10
91.54999999999804
 20
195.2476644720418
 30
0.0
 10
91.54999999999801
 20
195.5026741313696
 30
0.0
 10
91.54999999999805
 20
195.8885215130613
 30
0.0
 10
91.549999999998
 20
196.2370307374233
 30
0.0
 10
91.54999999999802
 20
196.4418083579839
 30
0.0
 10
91.54999999999802
 20
196.5527139599778
 30
0.0
  0
SPLINE
  5
E9
330
1F
100
AcDbEntity
  8
0
  6
Continuous
 62
     7
370
    25
100
AcDbSpline
210
0.0
220
0.0
230
1.0
 70
    24
 71
     3
 72
    11
 73
     7
 74
     0
 42
0.00000001
 43
0.00000001
 40
0.0
 40
0.0
 40
0.0
 40
0.0
 40
0.3000114789251302
 40
0.553082737111851
 40
0.7579538821360258
 40
0.9999999999999999
 40
0.9999999999999999
 40
0.9999999999999999
 40
0.9999999999999999
 10
90.29999999999801
 20
197.2744017964648
 30
0.0
 10
90.1802060097464
 20
197.2052387039457
 30
0.0
 10
89.9593611665581
 20
197.0777338742819
 30
0.0
 10
89.62520753202955
 20
196.8848101834361
 30
0.0
 10
89.32338969027874
 20
196.710555571255
 30
0.0
 10
89.14604706874681
 20
196.6081667609748
 30
0.0
 10
89.04999999999802
 20
196.5527139599778
 30
0.0
  0
SPLINE
  5
EB
330
1F
100
AcDbEntity
  8
0
  6
Continuous
 62
     7
370
    25
100
AcDbSpline
210
0.0
220
0.0
230
1.0
 70
    24
 71
     3
 72
    11
 73
     7
 74
     0
 42
0.00000001
 43
0.00000001
 40
0.0
 40
0.0
 40
0.0
 40
0.0
 40
0.3000114789251316
 40
0.5530827371118463
 40
0.7579538821360134
 40
1.0
 40
1.0
 40
1.0
 40
1.0
 10
89.04999999999802
 20
196.5527139599778
 30
0.0
 10
89.04999999999802
 20
196.4143877749397
 30
0.0
 10
89.04999999999801
 20
196.1593781156118
 30
0.0
 10
89.04999999999802
 20
195.7735307339204
 30
0.0
 10
89.04999999999801
 20
195.4250215095581
 30
0.0
 10
89.04999999999804
 20
195.2202438889977
 30
0.0
 10
89.04999999999804
 20
195.1093382870037
 30
0.0
  0
SPLINE
  5
ED
330
1F
100
AcDbEntity
  8
0
  6
Continuous
 62
     7
370
    25
100
AcDbSpline
210
0.0
220
0.0
230
1.0
 70
    24
 71
     3
 72
    11
 73
     7
 74
     0
 42
0.00000001
 43
0.00000001
 40
0.0
 40
0.0
 40
0.0
 40
0.0
 40
0.3000114789251302
 40
0.553082737111851
 40
0.7579538821360258
 40
0.9999999999999999
 40
0.9999999999999999
 40
0.9999999999999999
 40
0.9999999999999999
 10
90.29999999999804
 20
194.3876504505167
 30
0.0
 10
90.41979399024962
 20
194.4568135430357
 30
0.0
 10
90.64063883343793
 20
194.5843183726996
 30
0.0
 10
90.97479246796652
 20
194.7772420635455
 30
0.0
 10
91.27661030971731
 20
194.9514966757265
 30
0.0
 10
91.45395293124925
 20
195.0538854860068
 30
0.0
 10
91.54999999999804
 20
195.1093382870037
 30
0.0
  0
CIRCLE
  5
EE
330
1F
100
AcDbEntity
  8
0
  6
Continuous
 62
     7
370
    25
100
AcDbCircle
 10
90.3
 20
195.8310261235
 30
0.0
 40
2.585000000000008
  0
CIRCLE
  5
F0
330
1F
100
AcDbEntity
  8
0
  6
Continuous
 62
     7
370
    25
100
AcDbCircle
 10
90.3
 20
195.8310261235
 30
0.0
 40
2.75
  0
SPLINE
  5
F2
330
1F
100
AcDbEntity
  8
0
  6
Continuous
 62
     7
370
    25
100
AcDbSpline
210
0.0
220
0.0
230
1.0
 70
    24
 71
     3
 72
    11
 73
     7
 74
     0
 42
0.00000001
 43
0.00000001
 40
0.0
 40
0.0
 40
0.0
 40
0.0
 40
0.3000114789251342
 40
0.5530827371118421
 40
0.757953882136017
 40
1.0
 40
1.0
 40
1.0
 40
1.0
 10
58.04999999999803
 20
195.1093382870034
 30
0.0
 10
58.16979399024965
 20
195.0401751944843
 30
0.0
 10
58.39063883343793
 20
194.9126703648204
 30
0.0
 10
58.72479246796653
 20
194.7197466739747
 30
0.0
 10
59.02661030971731
 20
194.5454920617936
 30
0.0
 10
59.20395293124927
 20
194.4431032515134
 30
0.0
 10
59.29999999999804
 20
194.3876504505164
 30
0.0
  0
SPLINE
  5
F4
330
1F
100
AcDbEntity
  8
0
  6
Continuous
 62
     7
370
    25
100
AcDbSpline
210
0.0
220
0.0
230
1.0
 70
    24
 71
     3
 72
    11
 73
     7
 74
     0
 42
0.00000001
 43
0.00000001
 40
0.0
 40
0.0
 40
0.0
 40
0.0
 40
0.3000114789251316
 40
0.5530827371118463
 40
0.7579538821360134
 40
1.0
 40
1.0
 40
1.0
 40
1.0
 10
58.04999999999801
 20
196.5527139599775
 30
0.0
 10
58.04999999999802
 20
196.4143877749393
 30
0.0
 10
58.04999999999802
 20
196.1593781156115
 30
0.0
 10
58.04999999999802
 20
195.77353073392
 30
0.0
 10
58.049999999998
 20
195.4250215095578
 30
0.0
 10
58.04999999999804
 20
195.2202438889973
 30
0.0
 10
58.04999999999803
 20
195.1093382870034
 30
0.0
  0
SPLINE
  5
F6
330
1F
100
AcDbEntity
  8
0
  6
Continuous
 62
     7
370
    25
100
AcDbSpline
210
0.0
220
0.0
230
1.0
 70
    24
 71
     3
 72
    11
 73
     7
 74
     0
 42
0.00000001
 43
0.00000001
 40
0.0
 40
0.0
 40
0.0
 40
0.0
 40
0.300011478925134
 40
0.5530827371118509
 40
0.7579538821360257
 40
0.9999999999999999
 40
0.9999999999999999
 40
0.9999999999999999
 40
0.9999999999999999
 10
59.29999999999801
 20
197.2744017964645
 30
0.0
 10
59.1802060097464
 20
197.2052387039454
 30
0.0
 10
58.95936116655812
 20
197.0777338742816
 30
0.0
 10
58.62520753202954
 20
196.8848101834358
 30
0.0
 10
58.32338969027874
 20
196.7105555712547
 30
0.0
 10
58.14604706874678
 20
196.6081667609744
 30
0.0
 10
58.04999999999801
 20
196.5527139599775
 30
0.0
  0
SPLINE
  5
F8
330
1F
100
AcDbEntity
  8
0
  6
Continuous
 62
     7
370
    25
100
AcDbSpline
210
0.0
220
0.0
230
1.0
 70
    24
 71
     3
 72
    11
 73
     7
 74
     0
 42
0.00000001
 43
0.00000001
 40
0.0
 40
0.0
 40
0.0
 40
0.0
 40
0.3000114789251343
 40
0.5530827371118422
 40
0.7579538821360132
 40
1.0
 40
1.0
 40
1.0
 40
1.0
 10
60.54999999999801
 20
196.5527139599775
 30
0.0
 10
60.43020600974641
 20
196.6218770524966
 30
0.0
 10
60.20936116655812
 20
196.7493818821604
 30
0.0
 10
59.87520753202953
 20
196.9423055730063
 30
0.0
 10
59.57338969027874
 20
197.1165601851872
 30
0.0
 10
59.39604706874677
 20
197.2189489954675
 30
0.0
 10
59.29999999999801
 20
197.2744017964645
 30
0.0
  0
SPLINE
  5
FA
330
1F
100
AcDbEntity
  8
0
  6
Continuous
 62
     7
370
    25
100
AcDbSpline
210
0.0
220
0.0
230
1.0
 70
    24
 71
     3
 72
    11
 73
     7
 74
     0
 42
0.00000001
 43
0.00000001
 40
0.0
 40
0.0
 40
0.0
 40
0.0
 40
0.3000114789251492
 40
0.5530827371118459
 40
0.7579538821360132
 40
1.0
 40
1.0
 40
1.0
 40
1.0
 10
60.54999999999803
 20
195.1093382870034
 30
0.0
 10
60.54999999999802
 20
195.2476644720415
 30
0.0
 10
60.54999999999801
 20
195.5026741313693
 30
0.0
 10
60.54999999999805
 20
195.888521513061
 30
0.0
 10
60.54999999999801
 20
196.237030737423
 30
0.0
 10
60.54999999999801
 20
196.4418083579835
 30
0.0
 10
60.54999999999801
 20
196.5527139599775
 30
0.0
  0
SPLINE
  5
FC
330
1F
100
AcDbEntity
  8
0
  6
Continuous
 62
     7
370
    25
100
AcDbSpline
210
0.0
220
0.0
230
1.0
 70
    24
 71
     3
 72
    11
 73
     7
 74
     0
 42
0.00000001
 43
0.00000001
 40
0.0
 40
0.0
 40
0.0
 40
0.0
 40
0.300011478925134
 40
0.5530827371118509
 40
0.7579538821360257
 40
0.9999999999999999
 40
0.9999999999999999
 40
0.9999999999999999
 40
0.9999999999999999
 10
59.29999999999804
 20
194.3876504505164
 30
0.0
 10
59.41979399024963
 20
194.4568135430354
 30
0.0
 10
59.64063883343793
 20
194.5843183726993
 30
0.0
 10
59.97479246796654
 20
194.7772420635452
 30
0.0
 10
60.2766103097173
 20
194.9514966757262
 30
0.0
 10
60.45395293124926
 20
195.0538854860064
 30
0.0
 10
60.54999999999803
 20
195.1093382870034
 30
0.0
  0
CIRCLE
  5
FD
330
1F
100
AcDbEntity
  8
0
  6
Continuous
 62
     7
370
    25
100
AcDbCircle
 10
59.3
 20
195.8310261235
 30
0.0
 40
2.585000000000022
  0
CIRCLE
  5
FF
330
1F
100
AcDbEntity
  8
0
  6
Continuous
 62
     7
370
    25
100
AcDbCircle
 10
59.3
 20
195.8310261235
 30
0.0
 40
2.749999999999979
  0
SPLINE
  5
100
330
1F
100
AcDbEntity
  8
0
  6
Continuous
 62
     7
370
    25
100
AcDbSpline
210
0.0
220
0.0
230
1.0
 70
    24
 71
     3
 72
    11
 73
     7
 74
     0
 42
0.00000001
 43
0.00000001
 40
0.0
 40
0.0
 40
0.0
 40
0.0
 40
0.300011478925134
 40
0.5530827371118509
 40
0.7579538821360257
 40
0.9999999999999999
 40
0.9999999999999999
 40
0.9999999999999999
 40
0.9999999999999999
 10
-59.30000000000179
 20
163.3876504505151
 30
0.0
 10
-59.18020600975018
 20
163.4568135430342
 30
0.0
 10
-58.95936116656189
 20
163.584318372698
 30
0.0
 10
-58.62520753203332
 20
163.777242063544
 30
0.0
 10
-58.32338969028252
 20
163.9514966757249
 30
0.0
 10
-58.14604706875056
 20
164.0538854860052
 30
0.0
 10
-58.05000000000179
 20
164.1093382870022
 30
0.0
  0
SPLINE
  5
103
330
1F
100
AcDbEntity
  8
0
  6
Continuous
 62
     7
370
    25
100
AcDbSpline
210
0.0
220
0.0
230
1.0
 70
    24
 71
     3
 72
    11
 73
     7
 74
     0
 42
0.00000001
 43
0.00000001
 40
0.0
 40
0.0
 40
0.0
 40
0.0
 40
0.3000114789251343
 40
0.5530827371118422
 40
0.7579538821360132
 40
1.0
 40
1.0
 40
1.0
 40
1.0
 10
-60.55000000000179
 20
164.1093382870021
 30
0.0
 10
-60.43020600975019
 20
164.0401751944831
 30
0.0
 10
-60.2093611665619
 20
163.9126703648192
 30
0.0
 10
-59.87520753203331
 20
163.7197466739735
 30
0.0
 10
-59.57338969028252
 20
163.5454920617924
 30
0.0
 10
-59.39604706875055
 20
163.4431032515121
 30
0.0
 10
-59.30000000000179
 20
163.3876504505151
 30
0.0
  0
SPLINE
  5
104
330
1F
100
AcDbEntity
  8
0
  6
Continuous
 62
     7
370
    25
100
AcDbSpline
210
0.0
220
0.0
230
1.0
 70
    24
 71
     3
 72
    11
 73
     7
 74
     0
 42
0.00000001
 43
0.00000001
 40
0.0
 40
0.0
 40
0.0
 40
0.0
 40
0.3000114789251492
 40
0.5530827371118459
 40
0.7579538821360132
 40
1.0
 40
1.0
 40
1.0
 40
1.0
 10
-60.55000000000181
 20
165.5527139599762
 30
0.0
 10
-60.5500000000018
 20
165.4143877749381
 30
0.0
 10
-60.55000000000179
 20
165.1593781156103
 30
0.0
 10
-60.55000000000183
 20
164.7735307339188
 30
0.0
 10
-60.55000000000178
 20
164.4250215095566
 30
0.0
 10
-60.55000000000179
 20
164.2202438889961
 30
0.0
 10
-60.55000000000179
 20
164.1093382870021
 30
0.0
  0
SPLINE
  5
106
330
1F
100
AcDbEntity
  8
0
  6
Continuous
 62
     7
370
    25
100
AcDbSpline
210
0.0
220
0.0
230
1.0
 70
    24
 71
     3
 72
    11
 73
     7
 74
     0
 42
0.00000001
 43
0.00000001
 40
0.0
 40
0.0
 40
0.0
 40
0.0
 40
0.300011478925134
 40
0.5530827371118509
 40
0.7579538821360257
 40
0.9999999999999999
 40
0.9999999999999999
 40
0.9999999999999999
 40
0.9999999999999999
 10
-59.30000000000182
 20
166.2744017964633
 30
0.0
 10
-59.41979399025341
 20
166.2052387039442
 30
0.0
 10
-59.64063883344171
 20
166.0777338742803
 30
0.0
 10
-59.97479246797032
 20
165.8848101834346
 30
0.0
 10
-60.27661030972108
 20
165.7105555712535
 30
0.0
 10
-60.45395293125303
 20
165.6081667609732
 30
0.0
 10
-60.55000000000181
 20
165.5527139599762
 30
0.0
  0
SPLINE
  5
109
330
1F
100
AcDbEntity
  8
0
  6
Continuous
 62
     7
370
    25
100
AcDbSpline
210
0.0
220
0.0
230
1.0
 70
    24
 71
     3
 72
    11
 73
     7
 74
     0
 42
0.00000001
 43
0.00000001
 40
0.0
 40
0.0
 40
0.0
 40
0.0
 40
0.3000114789251342
 40
0.5530827371118421
 40
0.757953882136017
 40
1.0
 40
1.0
 40
1.0
 40
1.0
 10
-58.05000000000181
 20
165.5527139599762
 30
0.0
 10
-58.16979399025342
 20
165.6218770524953
 30
0.0
 10
-58.39063883344171
 20
165.7493818821592
 30
0.0
 10
-58.7247924679703
 20
165.942305573005
 30
0.0
 10
-59.02661030972109
 20
166.116560185186
 30
0.0
 10
-59.20395293125305
 20
166.2189489954663
 30
0.0
 10
-59.30000000000182
 20
166.2744017964633
 30
0.0
  0
SPLINE
  5
10B
330
1F
100
AcDbEntity
  8
0
  6
Continuous
 62
     7
370
    25
100
AcDbSpline
210
0.0
220
0.0
230
1.0
 70
    24
 71
     3
 72
    11
 73
     7
 74
     0
 42
0.00000001
 43
0.00000001
 40
0.0
 40
0.0
 40
0.0
 40
0.0
 40
0.3000114789251316
 40
0.5530827371118463
 40
0.7579538821360134
 40
1.0
 40
1.0
 40
1.0
 40
1.0
 10
-58.05000000000179
 20
164.1093382870022
 30
0.0
 10
-58.05000000000179
 20
164.2476644720403
 30
0.0
 10
-58.05000000000179
 20
164.5026741313681
 30
0.0
 10
-58.0500000000018
 20
164.8885215130596
 30
0.0
 10
-58.05000000000177
 20
165.2370307374217
 30
0.0
 10
-58.05000000000182
 20
165.4418083579823
 30
0.0
 10
-58.05000000000181
 20
165.5527139599762
 30
0.0
  0
CIRCLE
  5
10C
330
1F
100
AcDbEntity
  8
0
  6
Continuous
 62
     7
370
    25
100
AcDbCircle
 10
-59.3
 20
164.8310261235
 30
0.0
 40
2.585000000000015
  0
CIRCLE
  5
10E
330
1F
100
AcDbEntity
  8
0
  6
Continuous
 62
     7
370
    25
100
AcDbCircle
 10
-59.3
 20
164.8310261235
 30
0.0
 40
2.749999999999993
  0
LWPOLYLINE
  5
130
330
1F
100
AcDbEntity
  8
0
  6
Continuous
 62
     7
370
    25
100
AcDbPolyline
 90
        3
 70
   128
 43
0.0
 10
-95.95
 20
172.0310033732
 10
-97.015547412
 20
172.1901851669
 10
-97.8001204732
 20
172.3310261235
  0
LWPOLYLINE
  5
164
330
1F
100
AcDbEntity
  8
0
  6
Continuous
 62
     7
370
    25
100
AcDbPolyline
 90
        3
 70
   128
 43
0.0
 10
95.95
 20
172.0310033732
 10
97.015547412
 20
172.1901851669
 10
97.8001204732
 20
172.3310261235
  0
LINE
  5
171
330
1F
100
AcDbEntity
  8
0
  6
Continuous
 62
     7
370
    25
100
AcDbLine
 10
-106.3448998883
 20
171.5222666318
 30
0.0
 11
-95.95
 21
171.5222666318
 31
0.0
  0
LINE
  5
172
330
1F
100
AcDbEntity
  8
0
  6
Continuous
 62
     7
370
    25
100
AcDbLine
 10
-53.65
 20
171.5222666318
 30
0.0
 11
-37.3448998883
 21
171.5222666318
 31
0.0
  0
LINE
  5
173
330
1F
100
AcDbEntity
  8
0
  6
Continuous
 62
     7
370
    25
100
AcDbLine
 10
-37.3448998883
 20
189.5222666318
 30
0.0
 11
-53.65
 21
189.5222666318
 31
0.0
  0
LINE
  5
174
330
1F
100
AcDbEntity
  8
0
  6
Continuous
 62
     7
370
    25
100
AcDbLine
 10
-95.95
 20
189.5222666318
 30
0.0
 11
-106.3448998883
 21
189.5222666318
 31
0.0
  0
LINE
  5
175
330
1F
100
AcDbEntity
  8
0
  6
Continuous
 62
     7
370
    25
100
AcDbLine
 10
-106.3448998883
 20
179.9616461522
 30
0.0
 11
-111.9279935663
 21
179.9616461522
 31
0.0
  0
LINE
  5
176
330
1F
100
AcDbEntity
  8
0
  6
Continuous
 62
     7
370
    25
100
AcDbLine
 10
-113.1432957106
 20
179.9616461522
 30
0.0
 11
-121.3448998883
 21
179.9616461522
 31
0.0
  0
LINE
  5
177
330
1F
100
AcDbEntity
  8
0
  6
Continuous
 62
     7
370
    25
100
AcDbLine
 10
-121.3448998883
 20
172.4616461522
 30
0.0
 11
-106.3448998883
 21
172.4616461522
 31
0.0
  0
LINE
  5
178
330
1F
100
AcDbEntity
  8
0
  6
Continuous
 62
     7
370
    25
100
AcDbLine
 10
-106.3448998883
 20
189.5222666318
 30
0.0
 11
-106.3448998883
 21
176.178808228
 31
0.0
  0
LINE
  5
179
330
1F
100
AcDbEntity
  8
0
  6
Continuous
 62
     7
370
    25
100
AcDbLine
 10
-106.3448998883
 20
175.2766888843
 30
0.0
 11
-106.3448998883
 21
171.5222666318
 31
0.0
  0
LINE
  5
17A
330
1F
100
AcDbEntity
  8
0
  6
Continuous
 62
     7
370
    25
100
AcDbLine
 10
-37.3448998883
 20
189.5222666318
 30
0.0
 11
-37.3448998883
 21
181.1309607337
 31
0.0
  0
LINE
  5
17B
330
1F
100
AcDbEntity
  8
0
  6
Continuous
 62
     7
370
    25
100
AcDbLine
 10
-37.3448998883
 20
180.0633961104
 30
0.0
 11
-37.3448998883
 21
171.5222666318
 31
0.0
  0
LINE
  5
17C
330
1F
100
AcDbEntity
  8
0
  6
Continuous
 62
     7
370
    25
100
AcDbLine
 10
-121.3448998883
 20
172.4616461522
 30
0.0
 11
-121.3448998883
 21
179.9616461522
 31
0.0
  0
LINE
  5
17D
330
1F
100
AcDbEntity
  8
0
  6
Continuous
 62
     7
370
    25
100
AcDbLine
 10
92.95
 20
159.1810261235
 30
0.0
 11
56.65
 21
159.1810261235
 31
0.0
  0
LINE
  5
17E
330
1F
100
AcDbEntity
  8
0
  6
Continuous
 62
     7
370
    25
100
AcDbLine
 10
53.65
 20
162.1810261235
 30
0.0
 11
56.65
 21
159.1810261235
 31
0.0
  0
LINE
  5
17F
330
1F
100
AcDbEntity
  8
0
  6
Continuous
 62
     7
370
    25
100
AcDbLine
 10
95.95
 20
198.4810261235
 30
0.0
 11
92.95
 21
201.4810261235
 31
0.0
  0
LINE
  5
180
330
1F
100
AcDbEntity
  8
0
  6
Continuous
 62
     7
370
    25
100
AcDbLine
 10
95.95
 20
172.3310261235
 30
0.0
 11
101.95
 21
172.3310261235
 31
0.0
  0
LINE
  5
181
330
1F
100
AcDbEntity
  8
0
  6
Continuous
 62
     7
370
    25
100
AcDbLine
 10
53.65
 20
198.4810261235
 30
0.0
 11
56.65
 21
201.4810261235
 31
0.0
  0
LINE
  5
182
330
1F
100
AcDbEntity
  8
0
  6
Continuous
 62
     7
370
    25
100
AcDbLine
 10
95.95
 20
198.4810261235
 30
0.0
 11
95.95
 21
188.3310261235
 31
0.0
  0
LINE
  5
183
330
1F
100
AcDbEntity
  8
0
  6
Continuous
 62
     7
370
    25
100
AcDbLine
 10
95.95
 20
172.3310261235
 30
0.0
 11
95.95
 21
162.1810261235
 31
0.0
  0
LINE
  5
184
330
1F
100
AcDbEntity
  8
0
  6
Continuous
 62
     7
370
    25
100
AcDbLine
 10
56.65
 20
201.4810261235
 30
0.0
 11
92.95
 21
201.4810261235
 31
0.0
  0
LINE
  5
185
330
1F
100
AcDbEntity
  8
0
  6
Continuous
 62
     7
370
    25
100
AcDbLine
 10
53.65
 20
162.1810261235
 30
0.0
 11
53.65
 21
198.4810261235
 31
0.0
  0
LINE
  5
186
330
1F
100
AcDbEntity
  8
0
  6
Continuous
 62
     7
370
    25
100
AcDbLine
 10
95.95
 20
162.1810261235
 30
0.0
 11
92.95
 21
159.1810261235
 31
0.0
  0
LINE
  5
187
330
1F
100
AcDbEntity
  8
0
  6
Continuous
 62
     7
370
    25
100
AcDbLine
 10
101.95
 20
188.3310261235
 30
0.0
 11
101.95
 21
172.3310261235
 31
0.0
  0
LINE
  5
188
330
1F
100
AcDbEntity
  8
0
  6
Continuous
 62
     7
370
    25
100
AcDbLine
 10
95.95
 20
188.3310261235
 30
0.0
 11
101.95
 21
188.3310261235
 31
0.0
  0
LINE
  5
189
330
1F
100
AcDbEntity
  8
0
  6
Continuous
 62
     7
370
    25
100
AcDbLine
 10
-53.65
 20
162.1810261235
 30
0.0
 11
-56.65
 21
159.1810261235
 31
0.0
  0
LINE
  5
18A
330
1F
100
AcDbEntity
  8
0
  6
Continuous
 62
     7
370
    25
100
AcDbLine
 10
-56.65
 20
159.1810261235
 30
0.0
 11
-92.95
 21
159.1810261235
 31
0.0
  0
LINE
  5
18B
330
1F
100
AcDbEntity
  8
0
  6
Continuous
 62
     7
370
    25
100
AcDbLine
 10
-95.95
 20
162.1810261235
 30
0.0
 11
-92.95
 21
159.1810261235
 31
0.0
  0
LINE
  5
18C
330
1F
100
AcDbEntity
  8
0
  6
Continuous
 62
     7
370
    25
100
AcDbLine
 10
-95.95
 20
162.1810261235
 30
0.0
 11
-95.95
 21
172.3310261235
 31
0.0
  0
LINE
  5
18D
330
1F
100
AcDbEntity
  8
0
  6
Continuous
 62
     7
370
    25
100
AcDbLine
 10
-95.95
 20
172.3310261235
 30
0.0
 11
-101.95
 21
172.3310261235
 31
0.0
  0
LINE
  5
18E
330
1F
100
AcDbEntity
  8
0
  6
Continuous
 62
     7
370
    25
100
AcDbLine
 10
-101.95
 20
172.3310261235
 30
0.0
 11
-101.95
 21
188.3310261235
 31
0.0
  0
LINE
  5
18F
330
1F
100
AcDbEntity
  8
0
  6
Continuous
 62
     7
370
    25
100
AcDbLine
 10
-95.95
 20
188.3310261235
 30
0.0
 11
-101.95
 21
188.3310261235
 31
0.0
  0
LINE
  5
190
330
1F
100
AcDbEntity
  8
0
  6
Continuous
 62
     7
370
    25
100
AcDbLine
 10
-95.95
 20
188.3310261235
 30
0.0
 11
-95.95
 21
198.4810261235
 31
0.0
  0
LINE
  5
191
330
1F
100
AcDbEntity
  8
0
  6
Continuous
 62
     7
370
    25
100
AcDbLine
 10
-53.65
 20
198.4810261235
 30
0.0
 11
-53.65
 21
162.1810261235
 31
0.0
  0
LINE
  5
192
330
1F
100
AcDbEntity
  8
0
  6
Continuous
 62
     7
370
    25
100
AcDbLine
 10
-92.95
 20
201.4810261235
 30
0.0
 11
-56.65
 21
201.4810261235
 31
0.0
  0
LINE
  5
193
330
1F
100
AcDbEntity
  8
0
  6
Continuous
 62
     7
370
    25
100
AcDbLine
 10
-95.95
 20
198.4810261235
 30
0.0
 11
-92.95
 21
201.4810261235
 31
0.0
  0
LINE
  5
194
330
1F
100
AcDbEntity
  8
0
  6
Continuous
 62
     7
370
    25
100
AcDbLine
 10
-53.65
 20
198.4810261235
 30
0.0
 11
-56.65
 21
201.4810261235
 31
0.0
  0
LINE
  5
195
330
1F
100
AcDbEntity
  8
0
  6
Continuous
 62
     7
370
    25
100
AcDbLine
 10
87.55
 20
164.8310261235
 30
0.0
 11
87.715
 21
164.8310261235
 31
0.0
  0
LINE
  5
196
330
1F
100
AcDbEntity
  8
0
  6
Continuous
 62
     7
370
    25
100
AcDbLine
 10
-56.55
 20
195.8310261235
 30
0.0
 11
-56.715
 21
195.8310261235
 31
0.0
  0
LINE
  5
197
330
1F
100
AcDbEntity
  8
0
  6
Continuous
 62
     7
370
    25
100
AcDbLine
 10
-87.55
 20
164.8310261235
 30
0.0
 11
-87.715
 21
164.8310261235
 31
0.0
  0
LINE
  5
198
330
1F
100
AcDbEntity
  8
0
  6
Continuous
 62
     7
370
    25
100
AcDbLine
 10
56.55
 20
164.8310261235
 30
0.0
 11
56.715
 21
164.8310261235
 31
0.0
  0
LINE
  5
199
330
1F
100
AcDbEntity
  8
0
  6
Continuous
 62
     7
370
    25
100
AcDbLine
 10
-87.55
 20
195.8310261235
 30
0.0
 11
-87.715
 21
195.8310261235
 31
0.0
  0
LINE
  5
19A
330
1F
100
AcDbEntity
  8
0
  6
Continuous
 62
     7
370
    25
100
AcDbLine
 10
87.55
 20
195.8310261235
 30
0.0
 11
87.715
 21
195.8310261235
 31
0.0
  0
LINE
  5
19B
330
1F
100
AcDbEntity
  8
0
  6
Continuous
 62
     7
370
    25
100
AcDbLine
 10
56.55
 20
195.8310261235
 30
0.0
 11
56.715
 21
195.8310261235
 31
0.0
  0
LINE
  5
19C
330
1F
100
AcDbEntity
  8
0
  6
Continuous
 62
     7
370
    25
100
AcDbLine
 10
-56.55
 20
164.8310261235
 30
0.0
 11
-56.715
 21
164.8310261235
 31
0.0
  0
LINE
  5
19D
330
1F
100
AcDbEntity
  8
0
  6
Continuous
 62
     7
370
    25
100
AcDbLine
 10
-15.0
 20
180.3310261235
 30
0.0
 11
-7.0
 21
180.3310261235
 31
0.0
  0
LINE
  5
19E
330
1F
100
AcDbEntity
  8
0
  6
Continuous
 62
     7
370
    25
100
AcDbLine
 10
-32.5735931293
 20
137.9046192523
 30
0.0
 11
-26.9167388798
 21
132.2477650028
 31
0.0
  0
LINE
  5
19F
330
1F
100
AcDbEntity
  8
0
  6
Continuous
 62
     7
370
    25
100
AcDbLine
 10
-75.0000000008
 20
120.3310261238
 30
0.0
 11
-75.0000000008
 21
112.3310261238
 31
0.0
  0
LINE
  5
1A0
330
1F
100
AcDbEntity
  8
0
  6
Continuous
 62
     7
370
    25
100
AcDbLine
 10
-117.426406872
 20
137.904619253
 30
0.0
 11
-123.0832611215
 21
132.2477650035
 31
0.0
  0
LINE
  5
1A1
330
1F
100
AcDbEntity
  8
0
  6
Continuous
 62
     7
370
    25
100
AcDbLine
 10
-135.0000000005
 20
180.3310261246
 30
0.0
 11
-143.0000000005
 21
180.3310261246
 31
0.0
  0
LINE
  5
1A2
330
1F
100
AcDbEntity
  8
0
  6
Continuous
 62
     7
370
    25
100
AcDbLine
 10
-117.4264068713
 20
222.7574329958
 30
0.0
 11
-123.0832611208
 21
228.4142872453
 31
0.0
  0
LINE
  5
1A3
330
1F
100
AcDbEntity
  8
0
  6
Continuous
 62
     7
370
    25
100
AcDbLine
 10
-74.9999999997
 20
240.3310261243
 30
0.0
 11
-74.9999999997
 21
248.3310261243
 31
0.0
  0
LINE
  5
1A4
330
1F
100
AcDbEntity
  8
0
  6
Continuous
 62
     7
370
    25
100
AcDbLine
 10
-32.5735931285
 20
222.757432995
 30
0.0
 11
-26.916738879
 21
228.4142872445
 31
0.0
  0
LINE
  5
1A5
330
1F
100
AcDbEntity
  8
0
  6
Continuous
 62
     7
370
    25
100
AcDbLine
 10
32.5735931288
 20
222.7574329947
 30
0.0
 11
26.916738879
 21
228.4142872445
 31
0.0
  0
LINE
  5
1A6
330
1F
100
AcDbEntity
  8
0
  6
Continuous
 62
     7
370
    25
100
AcDbLine
 10
74.9999999997
 20
240.3310261235
 30
0.0
 11
74.9999999997
 21
248.3310261243
 31
0.0
  0
LINE
  5
1A7
330
1F
100
AcDbEntity
  8
0
  6
Continuous
 62
     7
370
    25
100
AcDbLine
 10
117.4264068707
 20
222.7574329952
 30
0.0
 11
123.0832611208
 21
228.4142872453
 31
0.0
  0
LINE
  5
1A8
330
1F
100
AcDbEntity
  8
0
  6
Continuous
 62
     7
370
    25
100
AcDbLine
 10
135.0
 20
180.3310261246
 30
0.0
 11
143.0000000005
 21
180.3310261246
 31
0.0
  0
LINE
  5
1A9
330
1F
100
AcDbEntity
  8
0
  6
Continuous
 62
     7
370
    25
100
AcDbLine
 10
117.426406872
 20
137.9046192531
 30
0.0
 11
123.0832611215
 21
132.2477650035
 31
0.0
  0
LINE
  5
1AA
330
1F
100
AcDbEntity
  8
0
  6
Continuous
 62
     7
370
    25
100
AcDbLine
 10
75.0000000008
 20
120.3310261235
 30
0.0
 11
75.0000000008
 21
112.3310261238
 31
0.0
  0
LINE
  5
1AB
330
1F
100
AcDbEntity
  8
0
  6
Continuous
 62
     7
370
    25
100
AcDbLine
 10
32.5735931291
 20
137.9046192521
 30
0.0
 11
26.9167388798
 21
132.2477650028
 31
0.0
  0
LINE
  5
1AC
330
1F
100
AcDbEntity
  8
0
  6
Continuous
 62
     7
370
    25
100
AcDbLine
 10
15.0
 20
180.3310261235
 30
0.0
 11
7.0
 21
180.3310261235
 31
0.0
  0
ARC
  5
1AD
330
1F
100
AcDbEntity
  8
0
  6
Continuous
 62
     7
370
    25
100
AcDbCircle
 10
59.3
 20
164.8310261235
 30
0.0
 40
2.875000000000057
100
AcDbArc
 50
270.0
 51
90.0
  0
ARC
  5
1AE
330
1F
100
AcDbEntity
  8
0
  6
Continuous
 62
     7
370
    25
100
AcDbCircle
 10
59.3
 20
164.8310261235
 30
0.0
 40
2.875000000000057
100
AcDbArc
 50
90.0
 51
270.0
  0
ARC
  5
1AF
330
1F
100
AcDbEntity
  8
0
  6
Continuous
 62
     7
370
    25
100
AcDbCircle
 10
90.3
 20
195.8310261235
 30
0.0
 40
2.875000000000028
100
AcDbArc
 50
270.0
 51
90.0
  0
ARC
  5
1B0
330
1F
100
AcDbEntity
  8
0
  6
Continuous
 62
     7
370
    25
100
AcDbCircle
 10
90.3
 20
195.8310261235
 30
0.0
 40
2.875000000000028
100
AcDbArc
 50
90.0
 51
270.0
  0
ARC
  5
1B1
330
1F
100
AcDbEntity
  8
0
  6
Continuous
 62
     7
370
    25
100
AcDbCircle
 10
59.3
 20
195.8310261235
 30
0.0
 40
2.875000000000057
100
AcDbArc
 50
270.0
 51
90.0
  0
ARC
  5
1B2
330
1F
100
AcDbEntity
  8
0
  6
Continuous
 62
     7
370
    25
100
AcDbCircle
 10
59.3
 20
195.8310261235
 30
0.0
 40
2.875000000000057
100
AcDbArc
 50
90.0
 51
270.0
  0
ARC
  5
1B3
330
1F
100
AcDbEntity
  8
0
  6
Continuous
 62
     7
370
    25
100
AcDbCircle
 10
90.3
 20
164.8310261235
 30
0.0
 40
2.875000000000028
100
AcDbArc
 50
270.0
 51
90.0
  0
ARC
  5
1B4
330
1F
100
AcDbEntity
  8
0
  6
Continuous
 62
     7
370
    25
100
AcDbCircle
 10
90.3
 20
164.8310261235
 30
0.0
 40
2.875000000000028
100
AcDbArc
 50
90.0
 51
270.0
  0
ARC
  5
1B5
330
1F
100
AcDbEntity
  8
0
  6
Continuous
 62
     7
370
    25
100
AcDbCircle
 10
-59.3
 20
195.8310261235
 30
0.0
 40
2.875000000000057
100
AcDbArc
 50
90.0
 51
270.0
  0
ARC
  5
1B6
330
1F
100
AcDbEntity
  8
0
  6
Continuous
 62
     7
370
    25
100
AcDbCircle
 10
-59.3
 20
195.8310261235
 30
0.0
 40
2.875000000000057
100
AcDbArc
 50
270.0
 51
90.0
  0
ARC
  5
1B7
330
1F
100
AcDbEntity
  8
0
  6
Continuous
 62
     7
370
    25
100
AcDbCircle
 10
-90.3
 20
195.8310261235
 30
0.0
 40
2.875
100
AcDbArc
 50
90.0
 51
270.0
  0
ARC
  5
1B8
330
1F
100
AcDbEntity
  8
0
  6
Continuous
 62
     7
370
    25
100
AcDbCircle
 10
-90.3
 20
195.8310261235
 30
0.0
 40
2.875
100
AcDbArc
 50
270.0
 51
90.0
  0
ARC
  5
1B9
330
1F
100
AcDbEntity
  8
0
  6
Continuous
 62
     7
370
    25
100
AcDbCircle
 10
-90.3
 20
164.8310261235
 30
0.0
 40
2.875
100
AcDbArc
 50
90.0
 51
270.0
  0
ARC
  5
1BA
330
1F
100
AcDbEntity
  8
0
  6
Continuous
 62
     7
370
    25
100
AcDbCircle
 10
-90.3
 20
164.8310261235
 30
0.0
 40
2.875
100
AcDbArc
 50
270.0
 51
90.0
  0
ARC
  5
1BB
330
1F
100
AcDbEntity
  8
0
  6
Continuous
 62
     7
370
    25
100
AcDbCircle
 10
-59.3
 20
164.8310261235
 30
0.0
 40
2.875000000000057
100
AcDbArc
 50
90.0
 51
270.0
  0
ARC
  5
1BC
330
1F
100
AcDbEntity
  8
0
  6
Continuous
 62
     7
370
    25
100
AcDbCircle
 10
-59.3
 20
164.8310261235
 30
0.0
 40
2.875000000000057
100
AcDbArc
 50
270.0
 51
90.0
  0
ARC
  5
1BD
330
1F
100
AcDbEntity
  8
0
  6
Continuous
 62
     7
370
    25
100
AcDbCircle
 10
90.3
 20
164.8310261235
 30
0.0
 40
1.44337567297407
100
AcDbArc
 50
30.0
 51
330.0
  0
ARC
  5
1BE
330
1F
100
AcDbEntity
  8
0
  6
Continuous
 62
     7
370
    25
100
AcDbCircle
 10
90.3
 20
164.8310261235
 30
0.0
 40
1.443375672974043
100
AcDbArc
 50
330.0
 51
30.0
  0
ARC
  5
1BF
330
1F
100
AcDbEntity
  8
0
  6
Continuous
 62
     7
370
    25
100
AcDbCircle
 10
-59.3
 20
195.8310261235
 30
0.0
 40
1.44337567297408
100
AcDbArc
 50
150.0
 51
90.0
  0
ARC
  5
1C0
330
1F
100
AcDbEntity
  8
0
  6
Continuous
 62
     7
370
    25
100
AcDbCircle
 10
-59.3
 20
195.8310261235
 30
0.0
 40
1.443375672974195
100
AcDbArc
 50
90.0
 51
150.0
  0
ARC
  5
1C1
330
1F
100
AcDbEntity
  8
0
  6
Continuous
 62
     7
370
    25
100
AcDbCircle
 10
-90.3
 20
164.8310261235
 30
0.0
 40
1.443375672974154
100
AcDbArc
 50
150.0
 51
90.0
  0
ARC
  5
1C2
330
1F
100
AcDbEntity
  8
0
  6
Continuous
 62
     7
370
    25
100
AcDbCircle
 10
-90.3
 20
164.8310261235
 30
0.0
 40
1.443375672974071
100
AcDbArc
 50
90.0
 51
150.0
  0
ARC
  5
1C3
330
1F
100
AcDbEntity
  8
0
  6
Continuous
 62
     7
370
    25
100
AcDbCircle
 10
59.3
 20
164.8310261235
 30
0.0
 40
1.443375672974099
100
AcDbArc
 50
330.0
 51
270.0
  0
ARC
  5
1C4
330
1F
100
AcDbEntity
  8
0
  6
Continuous
 62
     7
370
    25
100
AcDbCircle
 10
59.3
 20
164.8310261235
 30
0.0
 40
1.443375672974213
100
AcDbArc
 50
270.0
 51
330.0
  0
ARC
  5
1C5
330
1F
100
AcDbEntity
  8
0
  6
Continuous
 62
     7
370
    25
100
AcDbCircle
 10
-90.3
 20
195.8310261235
 30
0.0
 40
1.443375672974071
100
AcDbArc
 50
150.0
 51
90.0
  0
ARC
  5
1C6
330
1F
100
AcDbEntity
  8
0
  6
Continuous
 62
     7
370
    25
100
AcDbCircle
 10
-90.3
 20
195.8310261235
 30
0.0
 40
1.44337567297396
100
AcDbArc
 50
90.0
 51
150.0
  0
ARC
  5
1C7
330
1F
100
AcDbEntity
  8
0
  6
Continuous
 62
     7
370
    25
100
AcDbCircle
 10
90.3
 20
195.8310261235
 30
0.0
 40
1.443375672974175
100
AcDbArc
 50
330.0
 51
270.0
  0
ARC
  5
1C8
330
1F
100
AcDbEntity
  8
0
  6
Continuous
 62
     7
370
    25
100
AcDbCircle
 10
90.3
 20
195.8310261235
 30
0.0
 40
1.443375672974014
100
AcDbArc
 50
270.0
 51
330.0
  0
ARC
  5
1C9
330
1F
100
AcDbEntity
  8
0
  6
Continuous
 62
     7
370
    25
100
AcDbCircle
 10
59.3
 20
195.8310261235
 30
0.0
 40
1.443375672974099
100
AcDbArc
 50
330.0
 51
270.0
  0
ARC
  5
1CA
330
1F
100
AcDbEntity
  8
0
  6
Continuous
 62
     7
370
    25
100
AcDbCircle
 10
59.3
 20
195.8310261235
 30
0.0
 40
1.443375672974184
100
AcDbArc
 50
270.0
 51
330.0
  0
ARC
  5
1CB
330
1F
100
AcDbEntity
  8
0
  6
Continuous
 62
     7
370
    25
100
AcDbCircle
 10
-59.3
 20
164.8310261235
 30
0.0
 40
1.443375672974085
100
AcDbArc
 50
30.0
 51
330.0
  0
ARC
  5
1CC
330
1F
100
AcDbEntity
  8
0
  6
Continuous
 62
     7
370
    25
100
AcDbCircle
 10
-59.3
 20
164.8310261235
 30
0.0
 40
1.443375672974017
100
AcDbArc
 50
330.0
 51
30.0
  0
ARC
  5
1CD
330
1F
100
AcDbEntity
  8
0
  6
Continuous
 62
     7
370
    25
100
AcDbCircle
 10
1.2261494006
 20
196.1796226074
 30
0.0
 40
17.8563026540387
100
AcDbArc
 50
191.7453417086
 51
242.5686145748
  0
ARC
  5
1CE
330
1F
100
AcDbEntity
  8
0
  6
Continuous
 62
     7
370
    25
100
AcDbCircle
 10
-9.89332281
 20
137.6376490246
 30
0.0
 40
17.85630265351654
100
AcDbArc
 50
146.7453417074
 51
197.5686145752
  0
ARC
  5
1CF
330
1F
100
AcDbEntity
  8
0
  6
Continuous
 62
     7
370
    25
100
AcDbCircle
 10
-59.1514035173
 20
104.1048767236
 30
0.0
 40
17.85630265342906
100
AcDbArc
 50
101.7453417069
 51
152.5686145753
  0
ARC
  5
1D0
330
1F
100
AcDbEntity
  8
0
  6
Continuous
 62
     7
370
    25
100
AcDbCircle
 10
-117.6933770997
 20
115.2243489334
 30
0.0
 40
17.85630265382755
100
AcDbArc
 50
56.7453417074
 51
107.5686145749
  0
ARC
  5
1D1
330
1F
100
AcDbEntity
  8
0
  6
Continuous
 62
     7
370
    25
100
AcDbCircle
 10
-151.2261494015
 20
164.4824296403
 30
0.0
 40
17.85630265447877
100
AcDbArc
 50
11.7453417086
 51
62.5686145744
  0
ARC
  5
1D2
330
1F
100
AcDbEntity
  8
0
  6
Continuous
 62
     7
370
    25
100
AcDbCircle
 10
-140.1066771954
 20
223.0244032232
 30
0.0
 40
17.85630265823421
100
AcDbArc
 50
326.7453417168
 51
17.5686145711
  0
ARC
  5
1D3
330
1F
100
AcDbEntity
  8
0
  6
Continuous
 62
     7
370
    25
100
AcDbCircle
 10
-90.8485964872
 20
256.5571755281
 30
0.0
 40
17.85630265861558
100
AcDbArc
 50
281.7453417175
 51
332.5686145708
  0
ARC
  5
1D4
330
1F
100
AcDbEntity
  8
0
  6
Continuous
 62
     7
370
    25
100
AcDbCircle
 10
-32.306622901
 20
245.4377033178
 30
0.0
 40
17.85630265687794
100
AcDbArc
 50
236.7453417141
 51
287.5686145723
  0
ARC
  5
1D5
330
1F
100
AcDbEntity
  8
0
  6
Continuous
 62
     7
370
    25
100
AcDbCircle
 10
-74.9999999976
 20
180.3310261363
 30
0.0
 40
59.99999998799322
100
AcDbArc
 50
56.7453417037
 51
90.000000002
  0
ARC
  5
1D6
330
1F
100
AcDbEntity
  8
0
  6
Continuous
 62
     7
370
    25
100
AcDbCircle
 10
-75.0
 20
180.3310261235
 30
0.0
 40
58.80000000000052
100
AcDbArc
 50
5.9098284864
 51
47.228909152
  0
ARC
  5
1D7
330
1F
100
AcDbEntity
  8
0
  6
Continuous
 62
     7
370
    25
100
AcDbCircle
 10
-75.0
 20
180.3310261235
 30
0.0
 40
58.7999999999998
100
AcDbArc
 50
50.9098284864
 51
92.228909152
  0
ARC
  5
1D8
330
1F
100
AcDbEntity
  8
0
  6
Continuous
 62
     7
370
    25
100
AcDbCircle
 10
-75.0
 20
180.3310261235
 30
0.0
 40
58.80000000000025
100
AcDbArc
 50
95.9098284864
 51
137.228909152
  0
ARC
  5
1D9
330
1F
100
AcDbEntity
  8
0
  6
Continuous
 62
     7
370
    25
100
AcDbCircle
 10
-75.0
 20
180.3310261235
 30
0.0
 40
58.79999999999949
100
AcDbArc
 50
140.9098284864
 51
182.228909152
  0
ARC
  5
1DA
330
1F
100
AcDbEntity
  8
0
  6
Continuous
 62
     7
370
    25
100
AcDbCircle
 10
-75.0
 20
180.3310261235
 30
0.0
 40
58.80000000000018
100
AcDbArc
 50
185.9098284864
 51
227.228909152
  0
ARC
  5
1DB
330
1F
100
AcDbEntity
  8
0
  6
Continuous
 62
     7
370
    25
100
AcDbCircle
 10
-75.0
 20
180.3310261235
 30
0.0
 40
58.8000000000005
100
AcDbArc
 50
230.9098284864
 51
272.228909152
  0
ARC
  5
1DC
330
1F
100
AcDbEntity
  8
0
  6
Continuous
 62
     7
370
    25
100
AcDbCircle
 10
-75.0
 20
180.3310261235
 30
0.0
 40
58.80000000000038
100
AcDbArc
 50
275.9098284864
 51
317.228909152
  0
ARC
  5
1DD
330
1F
100
AcDbEntity
  8
0
  6
Continuous
 62
     7
370
    25
100
AcDbCircle
 10
-75.0
 20
180.3310261235
 30
0.0
 40
58.80000000000031
100
AcDbArc
 50
320.9098284864
 51
2.228909152
  0
ARC
  5
1DE
330
1F
100
AcDbEntity
  8
0
  6
Continuous
 62
     7
370
    25
100
AcDbCircle
 10
-58.2384205454
 20
156.9482438174
 30
0.0
 40
31.95845745499163
100
AcDbArc
 50
334.6297230808
 51
81.745257848
  0
ARC
  5
1DF
330
1F
100
AcDbEntity
  8
0
  6
Continuous
 62
     7
370
    25
100
AcDbCircle
 10
-58.2384205454
 20
156.9482438174
 30
0.0
 40
31.15845745499143
100
AcDbArc
 50
327.9238032749
 51
81.5317787044
  0
ARC
  5
1E0
330
1F
100
AcDbEntity
  8
0
  6
Continuous
 62
     7
370
    25
100
AcDbCircle
 10
-79.6818974359
 20
151.9446756961
 30
0.0
 40
31.95845745499149
100
AcDbArc
 50
289.6297230808
 51
35.456688757
  0
ARC
  5
1E1
330
1F
100
AcDbEntity
  8
0
  6
Continuous
 62
     7
370
    25
100
AcDbCircle
 10
-79.6818974359
 20
151.9446756961
 30
0.0
 40
31.15845745499147
100
AcDbArc
 50
282.9238032749
 51
33.3353879059
  0
ARC
  5
1E2
330
1F
100
AcDbEntity
  8
0
  6
Continuous
 62
     7
370
    25
100
AcDbCircle
 10
-98.3827823061
 20
163.5694466689
 30
0.0
 40
31.95845745499147
100
AcDbArc
 50
244.6297230808
 51
352.1074121151
  0
ARC
  5
1E3
330
1F
100
AcDbEntity
  8
0
  6
Continuous
 62
     7
370
    25
100
AcDbCircle
 10
-98.3827823061
 20
163.5694466689
 30
0.0
 40
31.15845745499146
100
AcDbArc
 50
237.9238032749
 51
351.9034259168
  0
ARC
  5
1E4
330
1F
100
AcDbEntity
  8
0
  6
Continuous
 62
     7
370
    25
100
AcDbCircle
 10
-103.3863504274
 20
185.0129235594
 30
0.0
 40
31.95845745499152
100
AcDbArc
 50
199.6297230808
 51
306.0702089371
  0
ARC
  5
1E5
330
1F
100
AcDbEntity
  8
0
  6
Continuous
 62
     7
370
    25
100
AcDbCircle
 10
-103.3863504274
 20
185.0129235594
 30
0.0
 40
31.15845745499145
100
AcDbArc
 50
192.9238032749
 51
303.9987980607
  0
ARC
  5
1E6
330
1F
100
AcDbEntity
  8
0
  6
Continuous
 62
     7
370
    25
100
AcDbCircle
 10
-91.7615794546
 20
203.7138084295
 30
0.0
 40
31.95845745499151
100
AcDbArc
 50
154.6297230808
 51
251.409508868
  0
ARC
  5
1E7
330
1F
100
AcDbEntity
  8
0
  6
Continuous
 62
     7
370
    25
100
AcDbCircle
 10
-91.7615794546
 20
203.7138084295
 30
0.0
 40
31.15845745499147
100
AcDbArc
 50
147.9238032749
 51
250.9139801824
  0
ARC
  5
1E8
330
1F
100
AcDbEntity
  8
0
  6
Continuous
 62
     7
370
    25
100
AcDbCircle
 10
-70.3181025641
 20
208.7173765508
 30
0.0
 40
31.9584574549915
100
AcDbArc
 50
109.6297230808
 51
216.674839495
  0
ARC
  5
1E9
330
1F
100
AcDbEntity
  8
0
  6
Continuous
 62
     7
370
    25
100
AcDbCircle
 10
-70.3181025641
 20
208.7173765508
 30
0.0
 40
31.15845745499145
100
AcDbArc
 50
102.9238032749
 51
214.6510095333
  0
ARC
  5
1EA
330
1F
100
AcDbEntity
  8
0
  6
Continuous
 62
     7
370
    25
100
AcDbCircle
 10
-51.6172176939
 20
197.0926055781
 30
0.0
 40
31.95845745499145
100
AcDbArc
 50
64.6297230808
 51
172.1074121151
  0
ARC
  5
1EB
330
1F
100
AcDbEntity
  8
0
  6
Continuous
 62
     7
370
    25
100
AcDbCircle
 10
-51.6172176939
 20
197.0926055781
 30
0.0
 40
31.15845745499145
100
AcDbArc
 50
57.9238032749
 51
171.9034259168
  0
ARC
  5
1EC
330
1F
100
AcDbEntity
  8
0
  6
Continuous
 62
     7
370
    25
100
AcDbCircle
 10
-46.6136495727
 20
175.6491286876
 30
0.0
 40
31.95845745499149
100
AcDbArc
 50
19.6297230808
 51
126.0702089371
  0
ARC
  5
1ED
330
1F
100
AcDbEntity
  8
0
  6
Continuous
 62
     7
370
    25
100
AcDbCircle
 10
-46.6136495727
 20
175.6491286876
 30
0.0
 40
31.15845745499143
100
AcDbArc
 50
12.9238032749
 51
123.9987980607
  0
ARC
  5
1EE
330
1F
100
AcDbEntity
  8
0
  6
Continuous
 62
     7
370
    25
100
AcDbCircle
 10
-74.9999999939
 20
180.3310261277
 30
0.0
 40
59.99999999316858
100
AcDbArc
 50
11.7453417059
 51
45.0000000013
  0
ARC
  5
1EF
330
1F
100
AcDbEntity
  8
0
  6
Continuous
 62
     7
370
    25
100
AcDbCircle
 10
-74.9999999955
 20
180.3310261227
 30
0.0
 40
59.99999999552143
100
AcDbArc
 50
326.7453417067
 51
0.0000000008
  0
ARC
  5
1F0
330
1F
100
AcDbEntity
  8
0
  6
Continuous
 62
     7
370
    25
100
AcDbCircle
 10
-74.9999999996
 20
180.3310261259
 30
0.0
 40
60.00000000218536
100
AcDbArc
 50
236.7453417087
 51
269.9999999988
  0
ARC
  5
1F1
330
1F
100
AcDbEntity
  8
0
  6
Continuous
 62
     7
370
    25
100
AcDbCircle
 10
-74.9999999979
 20
180.3310261249
 30
0.0
 40
60.00000000259111
100
AcDbArc
 50
191.7453417087
 51
224.9999999985
  0
ARC
  5
1F2
330
1F
100
AcDbEntity
  8
0
  6
Continuous
 62
     7
370
    25
100
AcDbCircle
 10
-75.0000000086
 20
180.3310261251
 30
0.0
 40
59.99999999199016
100
AcDbArc
 50
146.7453417046
 51
180.0000000005
  0
ARC
  5
1F3
330
1F
100
AcDbEntity
  8
0
  6
Continuous
 62
     7
370
    25
100
AcDbCircle
 10
-75.0000000077
 20
180.3310261347
 30
0.0
 40
59.99999998750438
100
AcDbArc
 50
101.7453417032
 51
135.0000000016
  0
ARC
  5
1F4
330
1F
100
AcDbEntity
  8
0
  6
Continuous
 62
     7
370
    25
100
AcDbCircle
 10
-74.9999999997
 20
180.3310261231
 30
0.0
 40
59.9999999992564
100
AcDbArc
 50
281.7453417079
 51
314.9999999997
  0
ARC
  5
1F5
330
1F
100
AcDbEntity
  8
0
  6
Continuous
 62
     7
370
    25
100
AcDbCircle
 10
32.306622901
 20
245.4377033178
 30
0.0
 40
17.85630265687833
100
AcDbArc
 50
252.4313854277
 51
303.2546582859
  0
ARC
  5
1F6
330
1F
100
AcDbEntity
  8
0
  6
Continuous
 62
     7
370
    25
100
AcDbCircle
 10
75.0
 20
180.3310261235
 30
0.0
 40
59.99999999999972
100
AcDbArc
 50
90.0000000003
 51
123.2546582914
  0
ARC
  5
1F7
330
1F
100
AcDbEntity
  8
0
  6
Continuous
 62
     7
370
    25
100
AcDbCircle
 10
90.8485964872
 20
256.5571755281
 30
0.0
 40
17.85630265861537
100
AcDbArc
 50
207.4313854292
 51
258.2546582825
  0
ARC
  5
1F8
330
1F
100
AcDbEntity
  8
0
  6
Continuous
 62
     7
370
    25
100
AcDbCircle
 10
75.0
 20
180.3310261235
 30
0.0
 40
59.99999999999984
100
AcDbArc
 50
45.0000000007
 51
78.2546582918
  0
ARC
  5
1F9
330
1F
100
AcDbEntity
  8
0
  6
Continuous
 62
     7
370
    25
100
AcDbCircle
 10
140.1066771954
 20
223.0244032232
 30
0.0
 40
17.85630265823408
100
AcDbArc
 50
162.4313854289
 51
213.2546582832
  0
ARC
  5
1FA
330
1F
100
AcDbEntity
  8
0
  6
Continuous
 62
     7
370
    25
100
AcDbCircle
 10
75.0
 20
180.3310261235
 30
0.0
 40
60.00000000000013
100
AcDbArc
 50
0.000000001
 51
33.2546582922
  0
ARC
  5
1FB
330
1F
100
AcDbEntity
  8
0
  6
Continuous
 62
     7
370
    25
100
AcDbCircle
 10
151.2261494015
 20
164.4824296403
 30
0.0
 40
17.85630265447854
100
AcDbArc
 50
117.4313854256
 51
168.2546582914
  0
ARC
  5
1FC
330
1F
100
AcDbEntity
  8
0
  6
Continuous
 62
     7
370
    25
100
AcDbCircle
 10
74.9999999968
 20
180.3310261257
 30
0.0
 40
60.00000000377137
100
AcDbArc
 50
315.0000000017
 51
348.2546582908
  0
ARC
  5
1FD
330
1F
100
AcDbEntity
  8
0
  6
Continuous
 62
     7
370
    25
100
AcDbCircle
 10
117.6933770997
 20
115.2243489334
 30
0.0
 40
17.85630265382754
100
AcDbArc
 50
72.4313854251
 51
123.2546582926
  0
ARC
  5
1FE
330
1F
100
AcDbEntity
  8
0
  6
Continuous
 62
     7
370
    25
100
AcDbCircle
 10
75.0000000003
 20
180.3310261217
 30
0.0
 40
59.99999999818806
100
AcDbArc
 50
270.0000000005
 51
303.2546582929
  0
ARC
  5
1FF
330
1F
100
AcDbEntity
  8
0
  6
Continuous
 62
     7
370
    25
100
AcDbCircle
 10
59.1514035173
 20
104.1048767236
 30
0.0
 40
17.856302653429
100
AcDbArc
 50
27.4313854247
 51
78.2546582931
  0
ARC
  5
200
330
1F
100
AcDbEntity
  8
0
  6
Continuous
 62
     7
370
    25
100
AcDbCircle
 10
74.999999997
 20
180.3310261191
 30
0.0
 40
59.99999999477118
100
AcDbArc
 50
224.9999999994
 51
258.2546582939
  0
ARC
  5
201
330
1F
100
AcDbEntity
  8
0
  6
Continuous
 62
     7
370
    25
100
AcDbCircle
 10
9.89332281
 20
137.6376490246
 30
0.0
 40
17.85630265351636
100
AcDbArc
 50
342.4313854248
 51
33.2546582926
  0
ARC
  5
202
330
1F
100
AcDbEntity
  8
0
  6
Continuous
 62
     7
370
    25
100
AcDbCircle
 10
74.9999999955
 20
180.3310261227
 30
0.0
 40
59.99999999552178
100
AcDbArc
 50
179.9999999992
 51
213.2546582933
  0
ARC
  5
203
330
1F
100
AcDbEntity
  8
0
  6
Continuous
 62
     7
370
    25
100
AcDbCircle
 10
-1.2261494006
 20
196.1796226074
 30
0.0
 40
17.85630265403869
100
AcDbArc
 50
297.4313854253
 51
348.2546582914
  0
ARC
  5
204
330
1F
100
AcDbEntity
  8
0
  6
Continuous
 62
     7
370
    25
100
AcDbCircle
 10
75.0
 20
180.3310261235
 30
0.0
 40
60.00000000000004
100
AcDbArc
 50
135.0
 51
168.2546582914
  0
ARC
  5
205
330
1F
100
AcDbEntity
  8
0
  6
Continuous
 62
     7
370
    25
100
AcDbCircle
 10
79.6818974359
 20
151.9446756961
 30
0.0
 40
31.95845745499152
100
AcDbArc
 50
144.543311243
 51
250.3702769192
  0
ARC
  5
206
330
1F
100
AcDbEntity
  8
0
  6
Continuous
 62
     7
370
    25
100
AcDbCircle
 10
58.2384205454
 20
156.9482438174
 30
0.0
 40
31.15845745499147
100
AcDbArc
 50
98.4682212956
 51
212.0761967251
  0
ARC
  5
207
330
1F
100
AcDbEntity
  8
0
  6
Continuous
 62
     7
370
    25
100
AcDbCircle
 10
79.6818974359
 20
151.9446756961
 30
0.0
 40
31.15845745499145
100
AcDbArc
 50
146.6646120941
 51
257.0761967251
  0
ARC
  5
208
330
1F
100
AcDbEntity
  8
0
  6
Continuous
 62
     7
370
    25
100
AcDbCircle
 10
98.3827823061
 20
163.5694466689
 30
0.0
 40
31.15845745499148
100
AcDbArc
 50
188.0965740832
 51
302.0761967251
  0
ARC
  5
209
330
1F
100
AcDbEntity
  8
0
  6
Continuous
 62
     7
370
    25
100
AcDbCircle
 10
103.3863504273
 20
185.0129235594
 30
0.0
 40
31.15845745499148
100
AcDbArc
 50
236.0012019393
 51
347.0761967251
  0
ARC
  5
20A
330
1F
100
AcDbEntity
  8
0
  6
Continuous
 62
     7
370
    25
100
AcDbCircle
 10
75.0
 20
180.3310261235
 30
0.0
 40
58.80000000000022
100
AcDbArc
 50
357.771090848
 51
39.0901715136
  0
ARC
  5
20B
330
1F
100
AcDbEntity
  8
0
  6
Continuous
 62
     7
370
    25
100
AcDbCircle
 10
91.7615794546
 20
203.7138084295
 30
0.0
 40
31.15845745499154
100
AcDbArc
 50
289.0860198176
 51
32.0761967251
  0
ARC
  5
20C
330
1F
100
AcDbEntity
  8
0
  6
Continuous
 62
     7
370
    25
100
AcDbCircle
 10
70.3181025641
 20
208.7173765508
 30
0.0
 40
31.15845745499147
100
AcDbArc
 50
325.3489904667
 51
77.0761967251
  0
ARC
  5
20D
330
1F
100
AcDbEntity
  8
0
  6
Continuous
 62
     7
370
    25
100
AcDbCircle
 10
75.0
 20
180.3310261235
 30
0.0
 40
58.79999999999966
100
AcDbArc
 50
87.771090848
 51
129.0901715136
  0
ARC
  5
20E
330
1F
100
AcDbEntity
  8
0
  6
Continuous
 62
     7
370
    25
100
AcDbCircle
 10
51.6172176939
 20
197.0926055781
 30
0.0
 40
31.1584574549914
100
AcDbArc
 50
8.0965740832
 51
122.0761967251
  0
ARC
  5
20F
330
1F
100
AcDbEntity
  8
0
  6
Continuous
 62
     7
370
    25
100
AcDbCircle
 10
46.6136495726
 20
175.6491286876
 30
0.0
 40
31.15845745499145
100
AcDbArc
 50
56.0012019393
 51
167.0761967251
  0
ARC
  5
210
330
1F
100
AcDbEntity
  8
0
  6
Continuous
 62
     7
370
    25
100
AcDbCircle
 10
46.6136495726
 20
175.6491286876
 30
0.0
 40
31.95845745499149
100
AcDbArc
 50
53.9297910629
 51
160.3702769192
  0
ARC
  5
211
330
1F
100
AcDbEntity
  8
0
  6
Continuous
 62
     7
370
    25
100
AcDbCircle
 10
91.7615794546
 20
203.7138084295
 30
0.0
 40
31.95845745499157
100
AcDbArc
 50
288.590491132
 51
25.3702769192
  0
ARC
  5
212
330
1F
100
AcDbEntity
  8
0
  6
Continuous
 62
     7
370
    25
100
AcDbCircle
 10
75.0
 20
180.3310261235
 30
0.0
 40
58.80000000000019
100
AcDbArc
 50
132.771090848
 51
174.0901715136
  0
ARC
  5
213
330
1F
100
AcDbEntity
  8
0
  6
Continuous
 62
     7
370
    25
100
AcDbCircle
 10
70.3181025641
 20
208.7173765508
 30
0.0
 40
31.95845745499156
100
AcDbArc
 50
323.325160505
 51
70.3702769192
  0
ARC
  5
214
330
1F
100
AcDbEntity
  8
0
  6
Continuous
 62
     7
370
    25
100
AcDbCircle
 10
51.6172176939
 20
197.0926055781
 30
0.0
 40
31.95845745499147
100
AcDbArc
 50
7.8925878849
 51
115.3702769192
  0
ARC
  5
215
330
1F
100
AcDbEntity
  8
0
  6
Continuous
 62
     7
370
    25
100
AcDbCircle
 10
75.0
 20
180.3310261235
 30
0.0
 40
58.80000000000079
100
AcDbArc
 50
42.771090848
 51
84.0901715136
  0
ARC
  5
216
330
1F
100
AcDbEntity
  8
0
  6
Continuous
 62
     7
370
    25
100
AcDbCircle
 10
75.0
 20
180.3310261235
 30
0.0
 40
58.79999999999995
100
AcDbArc
 50
312.771090848
 51
354.0901715136
  0
ARC
  5
217
330
1F
100
AcDbEntity
  8
0
  6
Continuous
 62
     7
370
    25
100
AcDbCircle
 10
75.0
 20
180.3310261235
 30
0.0
 40
58.80000000000063
100
AcDbArc
 50
267.771090848
 51
309.0901715136
  0
ARC
  5
218
330
1F
100
AcDbEntity
  8
0
  6
Continuous
 62
     7
370
    25
100
AcDbCircle
 10
75.0
 20
180.3310261235
 30
0.0
 40
58.8000000000004
100
AcDbArc
 50
222.771090848
 51
264.0901715136
  0
ARC
  5
219
330
1F
100
AcDbEntity
  8
0
  6
Continuous
 62
     7
370
    25
100
AcDbCircle
 10
75.0
 20
180.3310261235
 30
0.0
 40
58.80000000000029
100
AcDbArc
 50
177.771090848
 51
219.0901715136
  0
ARC
  5
21A
330
1F
100
AcDbEntity
  8
0
  6
Continuous
 62
     7
370
    25
100
AcDbCircle
 10
58.2384205454
 20
156.9482438174
 30
0.0
 40
31.95845745499158
100
AcDbArc
 50
98.254742152
 51
205.3702769192
  0
ARC
  5
21B
330
1F
100
AcDbEntity
  8
0
  6
Continuous
 62
     7
370
    25
100
AcDbCircle
 10
98.3827823061
 20
163.5694466689
 30
0.0
 40
31.95845745499148
100
AcDbArc
 50
187.8925878849
 51
295.3702769192
  0
ARC
  5
21C
330
1F
100
AcDbEntity
  8
0
  6
Continuous
 62
     7
370
    25
100
AcDbCircle
 10
103.3863504273
 20
185.0129235594
 30
0.0
 40
31.95845745499153
100
AcDbArc
 50
233.9297910629
 51
340.3702769192
  0
MTEXT
  5
21E
330
1F
100
AcDbEntity
  8
0
  6
Continuous
 62
     7
100
AcDbMText
 10
-143.0000000005
 20
111.3114597321
 30
0.0
 40
4.83362
 41
0.0
 71
     1
 72
     1
  1
SOLIDWORKS Educational Product.
  7
SLDTEXTSTYLE0
 73
     1
 44
1.0
  0
MTEXT
  5
21F
330
1F
100
AcDbEntity
  8
0
  6
Continuous
 62
     7
100
AcDbMText
 10
-143.0000000005
 20
104.0610297321
 30
0.0
 40
4.83362
 41
0.0
 71
     1
 72
     1
  1
For Instructional Use Only.
  7
SLDTEXTSTYLE0
 73
     1
 44
1.0
  0
ENDSEC
  0
SECTION
  2
OBJECTS
  0
DICTIONARY
  5
C
330
0
100
AcDbDictionary
281
     1
  3
ACAD_GROUP
350
D
  3
ACAD_LAYOUT
350
1A
  3
ACAD_MLINESTYLE
350
17
  3
ACAD_PLOTSETTINGS
350
19
  3
ACAD_PLOTSTYLENAME
350
E
  3
ACAD_SCALELIST
350
47
  3
DWGPROPS
350
220
  0
DICTIONARY
  5
D
102
{ACAD_REACTORS
330
C
102
}
330
C
100
AcDbDictionary
281
     1
  0
DICTIONARY
  5
1A
102
{ACAD_REACTORS
330
C
102
}
330
C
100
AcDbDictionary
281
     1
  3
Layout1
350
1E
  3
Layout2
350
26
  3
Model
350
22
  0
DICTIONARY
  5
17
102
{ACAD_REACTORS
330
C
102
}
330
C
100
AcDbDictionary
281
     1
  3
Standard
350
18
  0
DICTIONARY
  5
19
102
{ACAD_REACTORS
330
C
102
}
330
C
100
AcDbDictionary
281
     1
  0
ACDBDICTIONARYWDFLT
  5
E
102
{ACAD_REACTORS
330
C
102
}
330
C
100
AcDbDictionary
281
     1
  3
Normal
350
F
100
AcDbDictionaryWithDefault
340
F
  0
DICTIONARY
  5
47
102
{ACAD_REACTORS
330
C
102
}
330
C
100
AcDbDictionary
281
     1
  3
A0
350
48
  3
A1
350
49
  3
A2
350
4A
  3
A3
350
4B
  3
A4
350
4C
  3
A5
350
4D
  3
A6
350
4E
  3
A7
350
4F
  3
A8
350
50
  3
A9
350
51
  3
B0
350
52
  3
B1
350
53
  3
B2
350
54
  3
B3
350
55
  3
B4
350
56
  3
B5
350
57
  3
B6
350
58
  0
XRECORD
  5
220
102
{ACAD_REACTORS
330
C
102
}
330
C
100
AcDbXrecord
280
     1
  1
DWGPROPS COOKIE
  2

  3

  4

  6

  7

  8
redpa
  9

300
=
301
=
302
=
303
=
304
=
305
=
306
=
307
=
308
=
309
=
 40
0.0
 41
2460523.083615278
 42
2460523.083646158
  1

 90
        0
  0
LAYOUT
  5
1E
102
{ACAD_REACTORS
330
1A
102
}
330
1A
100
AcDbPlotSettings
  1

  2
none_device
  4

  6

 40
0.0
 41
0.0
 42
0.0
 43
0.0
 44
0.0
 45
0.0
 46
0.0
 47
0.0
 48
0.0
 49
0.0
140
0.0
141
0.0
142
1.0
143
1.0
 70
   688
 72
     1
 73
     0
 74
     5
  7

 75
    16
147
1.0
148
0.0
149
0.0
100
AcDbLayout
  1
Layout1
 70
     1
 71
     1
 10
0.0
 20
0.0
 11
420.0
 21
297.0
 12
0.0
 22
0.0
 32
0.0
 14
1.0000000000E+20
 24
1.0000000000E+20
 34
1.0000000000E+20
 15
-1.0000000000E+20
 25
-1.0000000000E+20
 35
-1.0000000000E+20
146
0.0
 13
0.0
 23
0.0
 33
0.0
 16
1.0
 26
0.0
 36
0.0
 17
0.0
 27
1.0
 37
0.0
 76
     0
330
1B
  0
LAYOUT
  5
26
102
{ACAD_REACTORS
330
1A
102
}
330
1A
100
AcDbPlotSettings
  1

  2
none_device
  4

  6

 40
0.0
 41
0.0
 42
0.0
 43
0.0
 44
0.0
 45
0.0
 46
0.0
 47
0.0
 48
0.0
 49
0.0
140
0.0
141
0.0
142
1.0
143
1.0
 70
   688
 72
     1
 73
     0
 74
     5
  7

 75
    16
147
1.0
148
0.0
149
0.0
100
AcDbLayout
  1
Layout2
 70
     1
 71
     2
 10
0.0
 20
0.0
 11
0.0
 21
0.0
 12
0.0
 22
0.0
 32
0.0
 14
0.0
 24
0.0
 34
0.0
 15
0.0
 25
0.0
 35
0.0
146
0.0
 13
0.0
 23
0.0
 33
0.0
 16
1.0
 26
0.0
 36
0.0
 17
0.0
 27
1.0
 37
0.0
 76
     0
330
23
  0
LAYOUT
  5
22
102
{ACAD_REACTORS
330
1A
102
}
330
1A
100
AcDbPlotSettings
  1

  2
none_device
  4
ANSI_A_(11.00_x_8.50_Inches)
  6

 40
6.35
 41
19.05
 42
6.35000508
 43
19.05000254
 44
279.4
 45
215.9
 46
133.34999746
 47
-85.5078467661
 48
0.0
 49
0.0
140
0.0
141
0.0
142
0.0380769231
143
1.0
 70
  1696
 72
     0
 73
     0
 74
     0
  7

 75
     0
147
0.0179189148
148
-1300.4909072572
149
0.0
100
AcDbLayout
  1
Model
 70
     1
 71
     0
 10
0.0
 20
0.0
 11
420.0
 21
297.0
 12
0.0
 22
0.0
 32
0.0
 14
-143.0000000005
 24
112.3310261238
 34
0.0
 15
143.0000000005
 25
248.3310261243
 35
0.0
146
0.0
 13
0.0
 23
0.0
 33
0.0
 16
1.0
 26
0.0
 36
0.0
 17
0.0
 27
1.0
 37
0.0
 76
     0
330
1F
331
29
  0
MLINESTYLE
  5
18
102
{ACAD_REACTORS
330
17
102
}
330
17
100
AcDbMlineStyle
  2
Standard
 70
     0
  3

 62
   256
 51
90.0
 52
90.0
 71
     2
 49
0.5
 62
   256
  6
BYLAYER
 49
-0.5
 62
   256
  6
BYLAYER
  0
ACDBPLACEHOLDER
  5
F
102
{ACAD_REACTORS
330
E
102
}
330
E
  0
SCALE
  5
48
102
{ACAD_REACTORS
330
47
102
}
330
47
100
AcDbScale
 70
     0
300
1:1
140
1.0
141
1.0
290
     1
  0
SCALE
  5
49
102
{ACAD_REACTORS
330
47
102
}
330
47
100
AcDbScale
 70
     0
300
1:2
140
1.0
141
2.0
290
     0
  0
SCALE
  5
4A
102
{ACAD_REACTORS
330
47
102
}
330
47
100
AcDbScale
 70
     0
300
1:4
140
1.0
141
4.0
290
     0
  0
SCALE
  5
4B
102
{ACAD_REACTORS
330
47
102
}
330
47
100
AcDbScale
 70
     0
300
1:5
140
1.0
141
5.0
290
     0
  0
SCALE
  5
4C
102
{ACAD_REACTORS
330
47
102
}
330
47
100
AcDbScale
 70
     0
300
1:8
140
1.0
141
8.0
290
     0
  0
SCALE
  5
4D
102
{ACAD_REACTORS
330
47
102
}
330
47
100
AcDbScale
 70
     0
300
1:10
140
1.0
141
10.0
290
     0
  0
SCALE
  5
4E
102
{ACAD_REACTORS
330
47
102
}
330
47
100
AcDbScale
 70
     0
300
1:16
140
1.0
141
16.0
290
     0
  0
SCALE
  5
4F
102
{ACAD_REACTORS
330
47
102
}
330
47
100
AcDbScale
 70
     0
300
1:20
140
1.0
141
20.0
290
     0
  0
SCALE
  5
50
102
{ACAD_REACTORS
330
47
102
}
330
47
100
AcDbScale
 70
     0
300
1:30
140
1.0
141
30.0
290
     0
  0
SCALE
  5
51
102
{ACAD_REACTORS
330
47
102
}
330
47
100
AcDbScale
 70
     0
300
1:40
140
1.0
141
40.0
290
     0
  0
SCALE
  5
52
102
{ACAD_REACTORS
330
47
102
}
330
47
100
AcDbScale
 70
     0
300
1:50
140
1.0
141
50.0
290
     0
  0
SCALE
  5
53
102
{ACAD_REACTORS
330
47
102
}
330
47
100
AcDbScale
 70
     0
300
1:100
140
1.0
141
100.0
290
     0
  0
SCALE
  5
54
102
{ACAD_REACTORS
330
47
102
}
330
47
100
AcDbScale
 70
     0
300
2:1
140
2.0
141
1.0
290
     0
  0
SCALE
  5
55
102
{ACAD_REACTORS
330
47
102
}
330
47
100
AcDbScale
 70
     0
300
4:1
140
4.0
141
1.0
290
     0
  0
SCALE
  5
56
102
{ACAD_REACTORS
330
47
102
}
330
47
100
AcDbScale
 70
     0
300
8:1
140
8.0
141
1.0
290
     0
  0
SCALE
  5
57
102
{ACAD_REACTORS
330
47
102
}
330
47
100
AcDbScale
 70
     0
300
10:1
140
10.0
141
1.0
290
     0
  0
SCALE
  5
58
102
{ACAD_REACTORS
330
47
102
}
330
47
100
AcDbScale
 70
     0
300
100:1
140
100.0
141
1.0
290
     0
  0
ENDSEC
  0
EOF
